<svg xmlns="http://www.w3.org/2000/svg" width="400" height="400" viewBox="0 0 200 200">
  <circle cx="100" cy="100" r="96" fill="none" stroke="#E8E6E0" stroke-width="1.5"></circle>
  <circle cx="100" cy="100" r="88" fill="none" stroke="#E8E6E0" stroke-width="0.75"></circle>
  <path id="t" d="M 100,100 m -67,0 a 67,67 0 1,1 134,0" fill="none"></path>
  <path id="b" d="M 100,100 m -70,0 a 70,70 0 1,0 140,0" fill="none"></path>
  <text font-family="Marcellus, serif" font-size="14" letter-spacing="4.5" fill="#E8E6E0"><textPath href="#t" startOffset="50%" text-anchor="middle">PASAPORTE NEGRO</textPath></text>
  <text font-family="Marcellus, serif" font-size="10.5" letter-spacing="6" fill="#8A8F97"><textPath href="#b" startOffset="50%" text-anchor="middle">TURISMO DE LUJO</textPath></text>
  <g stroke="#E8E6E0" stroke-width="1.2" fill="none">
    <circle cx="100" cy="100" r="34"></circle>
    <ellipse cx="100" cy="100" rx="14" ry="34"></ellipse>
    <line x1="66" y1="100" x2="134" y2="100"></line>
    <path d="M 71,83 A 44 44 0 0 1 129,83"></path>
    <path d="M 71,117 A 44 44 0 0 0 129,117"></path>
  </g>
  <path d="M 100,44 l 3.2,7.2 7.6,0.8 -5.7,5.1 1.6,7.5 -6.7,-3.9 -6.7,3.9 1.6,-7.5 -5.7,-5.1 7.6,-0.8 z" fill="#E8E6E0"></path>
</svg>