<svg xmlns="http://www.w3.org/2000/svg" xmlns:xlink="http://www.w3.org/1999/xlink" width="512" zoomAndPan="magnify" viewBox="0 0 384 383.999986" height="512" preserveAspectRatio="xMidYMid meet" version="1.0"><defs><g/><clipPath id="498b95d46a"><path d="M 0 243 L 102 243 L 102 352 L 0 352 Z M 0 243 " clip-rule="nonzero"/></clipPath><clipPath id="8d51e2347c"><path d="M 66 124 L 384 124 L 384 373 L 66 373 Z M 66 124 " clip-rule="nonzero"/></clipPath><clipPath id="9e1d32fbd8"><rect x="0" width="384" y="0" height="384"/></clipPath></defs><g><g clip-path="url(#9e1d32fbd8)"><g fill="#ffffff" fill-opacity="1"><g transform="translate(38.741529, 176.847489)"><g><path d="M 308.875 -21.078125 C 309 -21.023438 309.09375 -20.90625 309.15625 -20.71875 C 309.226562 -20.53125 309.269531 -20.378906 309.28125 -20.265625 C 309.25 -20.046875 309.179688 -19.867188 309.078125 -19.734375 C 308.984375 -19.609375 308.867188 -19.492188 308.734375 -19.390625 C 308.210938 -19.066406 307.671875 -18.882812 307.109375 -18.84375 C 306.546875 -18.75 306.003906 -18.691406 305.484375 -18.671875 C 305.210938 -18.679688 304.992188 -18.675781 304.828125 -18.65625 C 302.148438 -18.488281 299.472656 -18.347656 296.796875 -18.234375 C 290.566406 -17.859375 284.375 -17.46875 278.21875 -17.0625 C 266.289062 -16.195312 254.359375 -15.25 242.421875 -14.21875 C 225.722656 -12.664062 209.035156 -10.859375 192.359375 -8.796875 C 180.421875 -7.285156 168.492188 -5.671875 156.578125 -3.953125 C 155.253906 -3.785156 153.929688 -3.59375 152.609375 -3.375 C 151.242188 -3.15625 149.898438 -2.96875 148.578125 -2.8125 C 140.472656 -1.695312 132.382812 -0.488281 124.3125 0.8125 L 124.15625 0.84375 C 119.40625 1.613281 114.703125 2.476562 110.046875 3.4375 C 108.296875 3.789062 106.578125 4.101562 104.890625 4.375 C 102.773438 4.757812 100.679688 5.515625 98.609375 6.640625 C 83.140625 15.046875 67.253906 21.960938 50.953125 27.390625 C 46.253906 28.960938 41.546875 30.40625 36.828125 31.71875 C 32.109375 33.039062 27.332031 34.09375 22.5 34.875 C 20.9375 35.132812 19.375 35.367188 17.8125 35.578125 C 15.457031 35.960938 13.132812 36.015625 10.84375 35.734375 C 9.925781 35.691406 9.054688 35.546875 8.234375 35.296875 C 7.503906 35.140625 6.863281 34.867188 6.3125 34.484375 C 5.769531 34.097656 5.460938 33.484375 5.390625 32.640625 C 5.398438 31.828125 5.632812 31.085938 6.09375 30.421875 C 6.550781 29.765625 7.101562 29.195312 7.75 28.71875 C 9.75 27.101562 11.921875 25.890625 14.265625 25.078125 C 15.410156 24.566406 16.59375 24.082031 17.8125 23.625 C 21.707031 22.03125 25.664062 20.582031 29.6875 19.28125 C 45.8125 14.15625 62.007812 9.890625 78.28125 6.484375 C 79.257812 6.234375 80.210938 6.007812 81.140625 5.8125 C 86.160156 4.738281 91.191406 3.703125 96.234375 2.703125 C 98.035156 2.359375 99.796875 1.722656 101.515625 0.796875 C 107.390625 -2.546875 113.125 -6.144531 118.71875 -10 C 124.320312 -13.851562 129.726562 -18.070312 134.9375 -22.65625 C 139.300781 -26.375 143.179688 -30.5625 146.578125 -35.21875 C 148.535156 -37.78125 150.015625 -40.554688 151.015625 -43.546875 C 152.296875 -47.867188 151.378906 -51.285156 148.265625 -53.796875 C 146.066406 -55.421875 143.601562 -56.566406 140.875 -57.234375 C 137.25 -58.242188 133.53125 -58.921875 129.71875 -59.265625 C 125.914062 -59.609375 122.078125 -59.820312 118.203125 -59.90625 C 107.304688 -59.90625 96.296875 -59.207031 85.171875 -57.8125 C 84.773438 -57.738281 84.394531 -57.675781 84.03125 -57.625 C 83.59375 -57.550781 83.148438 -57.476562 82.703125 -57.40625 C 81.785156 -57.101562 81.164062 -56.414062 80.84375 -55.34375 C 80.65625 -54.882812 80.492188 -54.441406 80.359375 -54.015625 C 80.035156 -52.992188 79.6875 -51.972656 79.3125 -50.953125 C 76.675781 -42.390625 74.054688 -33.851562 71.453125 -25.34375 C 69.296875 -18.113281 67.09375 -10.921875 64.84375 -3.765625 C 64.84375 -3.492188 64.796875 -3.257812 64.703125 -3.0625 C 64.429688 -2.175781 64.117188 -1.328125 63.765625 -0.515625 C 63.296875 0.203125 62.679688 0.566406 61.921875 0.578125 C 61.484375 0.703125 61.039062 0.742188 60.59375 0.703125 C 59.757812 0.429688 59.398438 -0.117188 59.515625 -0.953125 C 59.921875 -2.828125 60.398438 -4.671875 60.953125 -6.484375 C 64.191406 -17.804688 67.4375 -29.082031 70.6875 -40.3125 C 71.757812 -43.894531 72.8125 -47.46875 73.84375 -51.03125 C 73.90625 -51.351562 73.988281 -51.65625 74.09375 -51.9375 C 74.332031 -52.757812 74.550781 -53.5625 74.75 -54.34375 C 74.988281 -55.5625 74.550781 -56.113281 73.4375 -56 C 72.851562 -55.957031 72.28125 -55.890625 71.71875 -55.796875 C 70.96875 -55.742188 70.234375 -55.679688 69.515625 -55.609375 C 69.398438 -55.597656 69.238281 -55.570312 69.03125 -55.53125 C 68.164062 -55.476562 67.335938 -55.5 66.546875 -55.59375 C 65.765625 -55.6875 65.226562 -56.191406 64.9375 -57.109375 C 64.757812 -58.160156 64.992188 -59 65.640625 -59.625 C 66.285156 -60.25 67.019531 -60.789062 67.84375 -61.25 C 68.144531 -61.414062 68.421875 -61.550781 68.671875 -61.65625 C 70.859375 -63.019531 73.113281 -64.289062 75.4375 -65.46875 C 75.664062 -65.613281 75.929688 -65.738281 76.234375 -65.84375 C 78.035156 -66.726562 79.25 -68.148438 79.875 -70.109375 C 82.769531 -78.710938 85.675781 -87.3125 88.59375 -95.90625 C 89.582031 -98.863281 90.597656 -101.875 91.640625 -104.9375 C 91.785156 -105.363281 91.910156 -105.769531 92.015625 -106.15625 C 92.253906 -107.019531 92.570312 -107.875 92.96875 -108.71875 C 93.4375 -109.769531 94.179688 -110.273438 95.203125 -110.234375 C 95.648438 -110.367188 96.09375 -110.414062 96.53125 -110.375 C 97.539062 -110.09375 97.945312 -109.410156 97.75 -108.328125 C 97.757812 -108.265625 97.738281 -108.226562 97.6875 -108.21875 C 97.320312 -105.976562 96.800781 -103.785156 96.125 -101.640625 C 94.457031 -96.429688 92.734375 -91.207031 90.953125 -85.96875 C 90.421875 -84.21875 89.847656 -82.457031 89.234375 -80.6875 C 88.910156 -79.789062 88.601562 -78.914062 88.3125 -78.0625 C 87.800781 -76.539062 87.304688 -75.007812 86.828125 -73.46875 C 86.828125 -73.46875 86.800781 -73.425781 86.75 -73.34375 C 86.664062 -73.09375 86.613281 -72.832031 86.59375 -72.5625 C 86.570312 -72.289062 86.722656 -72.128906 87.046875 -72.078125 C 87.265625 -72.015625 87.476562 -71.972656 87.6875 -71.953125 L 87.84375 -72.0625 C 88.1875 -72.21875 88.585938 -72.382812 89.046875 -72.5625 C 89.140625 -72.632812 89.238281 -72.710938 89.34375 -72.796875 C 102.332031 -79.335938 115.285156 -86.03125 128.203125 -92.875 C 141.128906 -99.726562 153.910156 -106.914062 166.546875 -114.4375 C 166.835938 -114.59375 167.101562 -114.722656 167.34375 -114.828125 C 171.195312 -117.191406 175.023438 -119.566406 178.828125 -121.953125 C 182.640625 -124.347656 186.390625 -126.859375 190.078125 -129.484375 C 192.835938 -131.429688 195.375 -133.613281 197.6875 -136.03125 C 202.570312 -141.519531 202.148438 -145.648438 196.421875 -148.421875 C 193.734375 -149.679688 190.890625 -150.507812 187.890625 -150.90625 C 184.898438 -151.3125 181.882812 -151.457031 178.84375 -151.34375 C 171.539062 -151.269531 164.234375 -150.640625 156.921875 -149.453125 L 156.796875 -149.4375 C 149.765625 -148.226562 142.695312 -146.734375 135.59375 -144.953125 C 119.882812 -140.953125 104.410156 -135.65625 89.171875 -129.0625 C 75.117188 -123.082031 61.566406 -115.828125 48.515625 -107.296875 C 45.078125 -105.078125 41.78125 -102.644531 38.625 -100 C 37.738281 -99.207031 36.84375 -98.476562 35.9375 -97.8125 C 35.382812 -97.488281 34.847656 -97.34375 34.328125 -97.375 C 33.660156 -97.144531 33.078125 -97.238281 32.578125 -97.65625 C 32.203125 -98.0625 32.125 -98.472656 32.34375 -98.890625 C 32.5625 -99.304688 32.863281 -99.675781 33.25 -100 C 35.914062 -102.613281 38.753906 -104.898438 41.765625 -106.859375 C 41.828125 -106.867188 41.878906 -106.898438 41.921875 -106.953125 C 54.171875 -115.359375 66.925781 -122.570312 80.1875 -128.59375 C 99.300781 -137.351562 118.847656 -144.054688 138.828125 -148.703125 C 145.015625 -150.160156 151.203125 -151.394531 157.390625 -152.40625 C 164.117188 -153.5625 170.851562 -154.304688 177.59375 -154.640625 C 183.945312 -155.023438 190.125 -154.539062 196.125 -153.1875 C 198.9375 -152.613281 201.472656 -151.5 203.734375 -149.84375 C 205.628906 -148.332031 206.65625 -146.503906 206.8125 -144.359375 C 206.96875 -142.210938 206.28125 -139.953125 204.75 -137.578125 C 202.75 -134.804688 200.410156 -132.398438 197.734375 -130.359375 C 194.515625 -127.785156 191.1875 -125.382812 187.75 -123.15625 C 184.320312 -120.9375 180.851562 -118.769531 177.34375 -116.65625 C 177.238281 -116.582031 177.09375 -116.488281 176.90625 -116.375 C 164.695312 -108.875 152.320312 -101.75 139.78125 -95 C 127.25 -88.257812 114.640625 -81.671875 101.953125 -75.234375 C 99.816406 -74.128906 97.6875 -73.007812 95.5625 -71.875 C 92.613281 -70.3125 89.65625 -68.785156 86.6875 -67.296875 C 85.375 -66.753906 84.40625 -65.816406 83.78125 -64.484375 C 83.28125 -63.242188 83.125 -62.316406 83.3125 -61.703125 C 83.5 -61.085938 84.265625 -60.859375 85.609375 -61.015625 C 89.179688 -61.492188 92.765625 -61.890625 96.359375 -62.203125 C 96.617188 -62.242188 96.84375 -62.28125 97.03125 -62.3125 C 103.84375 -62.976562 110.613281 -63.335938 117.34375 -63.390625 C 124.070312 -63.453125 130.722656 -63.019531 137.296875 -62.09375 C 140.117188 -61.664062 142.878906 -61.101562 145.578125 -60.40625 C 147.378906 -59.90625 149.117188 -59.21875 150.796875 -58.34375 C 158.066406 -54.40625 159.554688 -48.191406 155.265625 -39.703125 C 153.847656 -36.898438 152.128906 -34.289062 150.109375 -31.875 C 145.085938 -25.914062 139.539062 -20.578125 133.46875 -15.859375 C 128.21875 -11.742188 122.84375 -7.847656 117.34375 -4.171875 C 116.6875 -3.835938 116.019531 -3.410156 115.34375 -2.890625 C 115.007812 -2.660156 114.628906 -2.40625 114.203125 -2.125 C 114.671875 -1.625 115.066406 -1.34375 115.390625 -1.28125 C 115.722656 -1.21875 116.085938 -1.25 116.484375 -1.375 C 116.484375 -1.375 116.515625 -1.378906 116.578125 -1.390625 C 117.628906 -1.492188 118.65625 -1.628906 119.65625 -1.796875 L 119.78125 -1.8125 C 120.457031 -1.925781 121.132812 -2.066406 121.8125 -2.234375 C 124.9375 -2.742188 128.0625 -3.253906 131.1875 -3.765625 C 149.757812 -6.710938 168.300781 -9.296875 186.8125 -11.515625 C 206.925781 -14.085938 227.046875 -16.101562 247.171875 -17.5625 C 253.566406 -18.039062 259.96875 -18.515625 266.375 -18.984375 C 274.082031 -19.585938 281.789062 -20.164062 289.5 -20.71875 C 294 -20.988281 298.488281 -21.164062 302.96875 -21.25 C 304.039062 -21.3125 305.15625 -21.359375 306.3125 -21.390625 C 307.132812 -21.410156 307.988281 -21.304688 308.875 -21.078125 Z M 76.21875 -60.203125 C 76.320312 -60.285156 76.421875 -60.425781 76.515625 -60.625 C 76.609375 -60.832031 76.671875 -60.992188 76.703125 -61.109375 C 76.679688 -61.253906 76.632812 -61.351562 76.5625 -61.40625 C 76.5 -61.457031 76.390625 -61.535156 76.234375 -61.640625 C 76.234375 -61.640625 76.203125 -61.671875 76.140625 -61.734375 C 75.460938 -61.472656 74.890625 -61.03125 74.421875 -60.40625 C 74.328125 -60.238281 74.304688 -60.078125 74.359375 -59.921875 C 74.410156 -59.765625 74.539062 -59.703125 74.75 -59.734375 C 75.226562 -59.816406 75.71875 -59.972656 76.21875 -60.203125 Z M 82.890625 10.5625 C 82.992188 10.445312 83.109375 10.378906 83.234375 10.359375 C 83.460938 10.273438 83.6875 10.132812 83.90625 9.9375 C 84.132812 9.738281 84.28125 9.472656 84.34375 9.140625 C 84.1875 8.910156 84.050781 8.769531 83.9375 8.71875 C 83.851562 8.738281 83.78125 8.753906 83.71875 8.765625 C 68.71875 11.898438 53.765625 15.640625 38.859375 19.984375 C 31.492188 22.078125 24.25 24.695312 17.125 27.84375 C 16.957031 27.957031 16.78125 28.0625 16.59375 28.15625 C 15.332031 28.625 14.242188 29.335938 13.328125 30.296875 C 13.097656 30.535156 12.96875 30.78125 12.9375 31.03125 C 12.90625 31.289062 13.0625 31.492188 13.40625 31.640625 C 14.070312 31.804688 14.773438 31.910156 15.515625 31.953125 C 18.003906 32.015625 20.5 31.84375 23 31.4375 C 25.132812 31.09375 27.25 30.644531 29.34375 30.09375 C 47.601562 25.53125 65.453125 19.019531 82.890625 10.5625 Z M 82.890625 10.5625 "/></g></g></g><g clip-path="url(#498b95d46a)"><g fill="#ffffff" fill-opacity="1"><g transform="translate(9.297643, 343.514233)"><g><path d="M 84.703125 -49.328125 C 85.140625 -48.640625 85.453125 -47.890625 85.640625 -47.078125 C 86.367188 -43.710938 86.660156 -39.90625 86.515625 -35.65625 C 86.367188 -31.414062 85.640625 -27.128906 84.328125 -22.796875 C 83.023438 -18.472656 81.003906 -14.628906 78.265625 -11.265625 C 75.535156 -7.898438 71.976562 -5.515625 67.59375 -4.109375 C 61.34375 -2.140625 55.695312 -2.316406 50.65625 -4.640625 C 47.582031 -6.128906 44.984375 -8.171875 42.859375 -10.765625 C 42.054688 -11.660156 41.253906 -12.59375 40.453125 -13.5625 C 40.078125 -14 39.640625 -14.472656 39.140625 -14.984375 C 37.691406 -13.992188 36.441406 -12.796875 35.390625 -11.390625 C 35.023438 -10.953125 34.65625 -10.539062 34.28125 -10.15625 C 34.195312 -10.082031 34.113281 -9.96875 34.03125 -9.8125 C 31.039062 -6.4375 27.832031 -3.265625 24.40625 -0.296875 C 20.726562 2.753906 16.84375 4.484375 12.75 4.890625 C 9.21875 5.203125 6.539062 4.351562 4.71875 2.34375 C 2.894531 0.332031 2.265625 -2.539062 2.828125 -6.28125 C 3.160156 -8.570312 3.804688 -10.796875 4.765625 -12.953125 C 5.722656 -15.109375 6.835938 -17.222656 8.109375 -19.296875 C 10.003906 -22.347656 12.046875 -25.289062 14.234375 -28.125 C 16.429688 -30.96875 18.722656 -33.765625 21.109375 -36.515625 C 23.171875 -38.878906 25.304688 -41.207031 27.515625 -43.5 C 29.109375 -45.125 29.804688 -46.914062 29.609375 -48.875 C 29.210938 -55.226562 29.535156 -61.753906 30.578125 -68.453125 C 31.234375 -73.054688 32.582031 -77.632812 34.625 -82.1875 C 38.082031 -89.894531 43.539062 -94.15625 51 -94.96875 C 54.695312 -95.5 57.988281 -94.984375 60.875 -93.421875 C 66.082031 -90.265625 67.242188 -85.085938 64.359375 -77.890625 C 62.972656 -74.921875 61.21875 -72.066406 59.09375 -69.328125 C 57.09375 -66.703125 54.972656 -64.175781 52.734375 -61.75 C 50.492188 -59.332031 48.21875 -56.972656 45.90625 -54.671875 C 45.625 -54.390625 45.347656 -54.125 45.078125 -53.875 C 42.972656 -51.726562 40.910156 -49.597656 38.890625 -47.484375 C 37.992188 -46.691406 37.578125 -45.820312 37.640625 -44.875 C 37.710938 -44.039062 37.816406 -43.222656 37.953125 -42.421875 C 38.304688 -39.921875 38.753906 -37.472656 39.296875 -35.078125 C 39.847656 -32.691406 40.671875 -30.460938 41.765625 -28.390625 C 41.859375 -28.347656 41.96875 -28.304688 42.09375 -28.265625 C 42.164062 -28.234375 42.203125 -28.21875 42.203125 -28.21875 C 43.523438 -29.1875 44.660156 -30.285156 45.609375 -31.515625 C 45.941406 -31.890625 46.265625 -32.300781 46.578125 -32.75 C 53.523438 -40.476562 60.710938 -47.941406 68.140625 -55.140625 C 69.203125 -56.117188 70.296875 -57.097656 71.421875 -58.078125 C 72.546875 -59.066406 73.78125 -59.582031 75.125 -59.625 C 75.90625 -59.695312 76.445312 -59.46875 76.75 -58.9375 C 76.976562 -58.507812 76.984375 -58.140625 76.765625 -57.828125 C 76.554688 -57.515625 76.3125 -57.207031 76.03125 -56.90625 C 75.394531 -56.144531 74.742188 -55.390625 74.078125 -54.640625 C 73.421875 -54.023438 72.804688 -53.347656 72.234375 -52.609375 C 70.867188 -51.160156 69.53125 -49.6875 68.21875 -48.1875 C 61.050781 -40.226562 53.910156 -32.238281 46.796875 -24.21875 C 45.691406 -23.03125 45.09375 -22.132812 45 -21.53125 C 44.914062 -20.925781 45.175781 -20.160156 45.78125 -19.234375 C 47.6875 -16.148438 49.953125 -13.476562 52.578125 -11.21875 C 54.660156 -9.414062 57.101562 -8.207031 59.90625 -7.59375 C 63.726562 -6.925781 67.003906 -7.453125 69.734375 -9.171875 C 72.460938 -10.898438 74.660156 -13.375 76.328125 -16.59375 C 77.992188 -19.8125 79.175781 -23.320312 79.875 -27.125 C 80.570312 -30.925781 80.796875 -34.554688 80.546875 -38.015625 C 80.304688 -41.472656 79.628906 -44.296875 78.515625 -46.484375 C 78.460938 -46.804688 78.394531 -47.085938 78.3125 -47.328125 C 78.101562 -47.671875 77.96875 -48.046875 77.90625 -48.453125 C 77.832031 -48.878906 77.910156 -49.253906 78.140625 -49.578125 C 78.378906 -49.898438 78.703125 -50.15625 79.109375 -50.34375 C 81.679688 -51.550781 83.546875 -51.210938 84.703125 -49.328125 Z M 40.390625 -79.109375 C 39.546875 -76.785156 38.910156 -74.476562 38.484375 -72.1875 C 38.054688 -69.90625 37.707031 -67.625 37.4375 -65.34375 C 37.363281 -64.5 37.3125 -63.628906 37.28125 -62.734375 C 37.125 -60.453125 37.039062 -58.15625 37.03125 -55.84375 C 36.976562 -55.320312 37.15625 -55.007812 37.5625 -54.90625 C 37.976562 -54.8125 38.398438 -54.960938 38.828125 -55.359375 C 41.503906 -57.910156 44.097656 -60.53125 46.609375 -63.21875 C 49.128906 -65.914062 51.5 -68.78125 53.71875 -71.8125 C 55.320312 -74.09375 56.566406 -76.457031 57.453125 -78.90625 C 59.316406 -85.25 57.625 -89.113281 52.375 -90.5 C 49.851562 -91.125 47.476562 -90.1875 45.25 -87.6875 C 44.09375 -86.425781 43.132812 -85.078125 42.375 -83.640625 C 41.613281 -82.203125 40.953125 -80.691406 40.390625 -79.109375 Z M 34.625 -19.0625 C 35.695312 -20.34375 35.921875 -21.570312 35.296875 -22.75 C 33.441406 -27 32.035156 -31.535156 31.078125 -36.359375 C 31.035156 -36.617188 30.910156 -36.925781 30.703125 -37.28125 C 30.546875 -37.507812 30.40625 -37.8125 30.28125 -38.1875 C 26.945312 -34.6875 23.910156 -31.160156 21.171875 -27.609375 C 18.429688 -24.066406 15.960938 -20.378906 13.765625 -16.546875 C 11.722656 -13.003906 10.539062 -9.414062 10.21875 -5.78125 C 10.09375 -3.820312 10.582031 -2.222656 11.6875 -0.984375 C 12.96875 0.585938 14.738281 0.582031 17 -1 C 18.207031 -1.757812 19.34375 -2.648438 20.40625 -3.671875 C 24.570312 -7.671875 28.535156 -11.898438 32.296875 -16.359375 C 33.015625 -17.265625 33.789062 -18.164062 34.625 -19.0625 Z M 34.625 -19.0625 "/></g></g></g></g><g fill="#ffffff" fill-opacity="1"><g transform="translate(109.826585, 327.185947)"><g/></g></g><g clip-path="url(#8d51e2347c)"><g fill="#ffffff" fill-opacity="1"><g transform="translate(153.489909, 320.093987)"><g><path d="M 224.09375 -76.375 C 218.5625 -76.125 213.035156 -75.550781 207.515625 -74.65625 C 205.085938 -74.351562 202.625 -74.023438 200.125 -73.671875 C 177.195312 -70.910156 154.335938 -67.445312 131.546875 -63.28125 C 130.410156 -63.09375 129.46875 -62.941406 128.71875 -62.828125 C 127.457031 -62.703125 126.546875 -62.546875 125.984375 -62.359375 C 125.429688 -62.171875 125.03125 -61.785156 124.78125 -61.203125 C 124.53125 -60.617188 124.269531 -59.695312 124 -58.4375 C 123.800781 -57.695312 123.578125 -56.785156 123.328125 -55.703125 C 120.859375 -46.773438 118.734375 -37.757812 116.953125 -28.65625 C 115.765625 -22.78125 115.078125 -16.832031 114.890625 -10.8125 C 114.765625 -8.9375 114.90625 -7.148438 115.3125 -5.453125 C 115.71875 -3.753906 116.742188 -2.335938 118.390625 -1.203125 C 118.609375 -1.085938 118.703125 -0.914062 118.671875 -0.6875 C 118.648438 -0.46875 118.550781 -0.25 118.375 -0.03125 C 118.207031 0.175781 118.019531 0.332031 117.8125 0.4375 C 114.507812 1.476562 112.28125 0.597656 111.125 -2.203125 C 110.457031 -3.796875 110.113281 -5.476562 110.09375 -7.25 C 110.0625 -7.394531 110.046875 -7.492188 110.046875 -7.546875 C 109.816406 -10.578125 109.867188 -13.625 110.203125 -16.6875 C 110.535156 -19.757812 110.953125 -22.863281 111.453125 -26 C 113.234375 -35.375 115.359375 -44.695312 117.828125 -53.96875 C 117.960938 -54.363281 118.054688 -54.757812 118.109375 -55.15625 C 118.234375 -55.613281 118.378906 -56.085938 118.546875 -56.578125 C 118.742188 -57.253906 118.921875 -57.921875 119.078125 -58.578125 C 119.242188 -59.242188 119.238281 -59.914062 119.0625 -60.59375 C 118.707031 -60.800781 118.367188 -60.910156 118.046875 -60.921875 C 117.722656 -60.929688 117.410156 -60.878906 117.109375 -60.765625 C 117.046875 -60.753906 116.972656 -60.742188 116.890625 -60.734375 C 114.222656 -60.296875 111.539062 -59.828125 108.84375 -59.328125 C 108.101562 -59.203125 107.320312 -59.078125 106.5 -58.953125 C 105.519531 -58.734375 104.734375 -58.28125 104.140625 -57.59375 C 103.554688 -56.914062 103.019531 -56.113281 102.53125 -55.1875 C 101.875 -54.007812 101.21875 -52.828125 100.5625 -51.640625 C 97.789062 -46.617188 94.984375 -41.625 92.140625 -36.65625 C 87.910156 -29.445312 83.414062 -22.421875 78.65625 -15.578125 C 73.894531 -8.734375 68.71875 -2.207031 63.125 4 C 56.132812 11.96875 48.515625 19.21875 40.265625 25.75 C 27.617188 35.445312 13.660156 41.332031 -1.609375 43.40625 C -15.984375 45.414062 -29.53125 43.648438 -42.25 38.109375 C -45.820312 36.554688 -49.097656 34.519531 -52.078125 32 C -54.085938 30.1875 -55.78125 28.160156 -57.15625 25.921875 C -58.53125 23.679688 -59.445312 21.160156 -59.90625 18.359375 C -60.300781 14.953125 -60.03125 11.6875 -59.09375 8.5625 C -58.15625 5.445312 -56.625 2.507812 -54.5 -0.25 C -51.613281 -4.125 -48.296875 -7.546875 -44.546875 -10.515625 C -40.910156 -13.515625 -37.113281 -16.226562 -33.15625 -18.65625 C -29.195312 -21.09375 -25.164062 -23.34375 -21.0625 -25.40625 C -14.4375 -28.789062 -7.679688 -31.828125 -0.796875 -34.515625 C 6.085938 -37.210938 13.035156 -39.6875 20.046875 -41.9375 C 36.722656 -47.0625 53.5625 -51.398438 70.5625 -54.953125 C 79.238281 -56.921875 87.925781 -58.609375 96.625 -60.015625 C 99.019531 -60.347656 100.703125 -61.65625 101.671875 -63.9375 C 103.453125 -67.550781 105.242188 -71.179688 107.046875 -74.828125 C 109.835938 -80.421875 112.566406 -86.085938 115.234375 -91.828125 C 127.535156 -118.742188 139.09375 -145.9375 149.90625 -173.40625 C 150.820312 -175.75 151.695312 -178.117188 152.53125 -180.515625 C 152.925781 -181.691406 153.34375 -182.90625 153.78125 -184.15625 C 154.28125 -185.726562 155.328125 -186.734375 156.921875 -187.171875 C 157.804688 -187.316406 158.492188 -187.171875 158.984375 -186.734375 C 159.472656 -186.304688 159.628906 -185.65625 159.453125 -184.78125 C 159.253906 -184.039062 159.003906 -183.332031 158.703125 -182.65625 C 156.992188 -177.925781 155.554688 -173.195312 154.390625 -168.46875 C 153.929688 -166.789062 153.488281 -165.144531 153.0625 -163.53125 C 148.800781 -148.226562 144.519531 -132.898438 140.21875 -117.546875 C 136.945312 -105.710938 133.640625 -93.851562 130.296875 -81.96875 C 129.335938 -78.457031 128.398438 -74.96875 127.484375 -71.5 C 127.285156 -70.769531 127.078125 -70.066406 126.859375 -69.390625 C 126.828125 -69.234375 126.796875 -69.070312 126.765625 -68.90625 C 126.640625 -68.40625 126.550781 -67.925781 126.5 -67.46875 C 126.445312 -67.007812 126.554688 -66.582031 126.828125 -66.1875 C 127.296875 -65.945312 127.816406 -65.859375 128.390625 -65.921875 C 128.972656 -65.984375 129.503906 -66.050781 129.984375 -66.125 C 130.359375 -66.25 130.707031 -66.335938 131.03125 -66.390625 C 133.394531 -66.710938 135.765625 -67.097656 138.140625 -67.546875 C 141.378906 -68.078125 144.640625 -68.578125 147.921875 -69.046875 C 165.710938 -71.617188 183.523438 -74.117188 201.359375 -76.546875 C 207.203125 -77.378906 213.023438 -78.078125 218.828125 -78.640625 C 219.335938 -78.660156 219.878906 -78.71875 220.453125 -78.8125 C 220.765625 -78.863281 221.101562 -78.921875 221.46875 -78.984375 C 222.21875 -79.097656 222.945312 -79.144531 223.65625 -79.125 C 224.375 -79.113281 225.078125 -78.976562 225.765625 -78.71875 C 225.898438 -78.65625 226.007812 -78.53125 226.09375 -78.34375 C 226.175781 -78.164062 226.203125 -78.019531 226.171875 -77.90625 C 226.203125 -77.71875 226.148438 -77.53125 226.015625 -77.34375 C 225.878906 -77.15625 225.757812 -77.023438 225.65625 -76.953125 C 225.1875 -76.660156 224.664062 -76.46875 224.09375 -76.375 Z M 97.078125 -55.28125 C 97.222656 -55.707031 97.1875 -56.0625 96.96875 -56.34375 C 96.757812 -56.632812 96.472656 -56.753906 96.109375 -56.703125 C 95.535156 -56.660156 94.9375 -56.5625 94.3125 -56.40625 C 94.007812 -56.351562 93.695312 -56.300781 93.375 -56.25 C 71.957031 -52.519531 50.726562 -47.554688 29.6875 -41.359375 C 21.644531 -39.023438 13.6875 -36.382812 5.8125 -33.4375 C -2.050781 -30.5 -9.78125 -27.164062 -17.375 -23.4375 C -21.425781 -21.425781 -25.390625 -19.238281 -29.265625 -16.875 C -33.140625 -14.507812 -36.859375 -11.84375 -40.421875 -8.875 C -44.179688 -5.90625 -47.484375 -2.476562 -50.328125 1.40625 C -53.609375 6.09375 -55.125 10.773438 -54.875 15.453125 C -54.625 20.128906 -52.675781 24.359375 -49.03125 28.140625 C -46.351562 30.773438 -43.320312 32.90625 -39.9375 34.53125 C -27.570312 40.59375 -13.722656 42.457031 1.609375 40.125 C 5.535156 39.476562 9.960938 38.234375 14.890625 36.390625 C 19.773438 34.523438 24.40625 32.191406 28.78125 29.390625 C 33.164062 26.585938 37.359375 23.445312 41.359375 19.96875 C 51.203125 11.457031 60.054688 1.96875 67.921875 -8.5 C 73.390625 -15.59375 78.4375 -22.953125 83.0625 -30.578125 C 87.695312 -38.203125 92.132812 -45.914062 96.375 -53.71875 C 96.601562 -54.28125 96.835938 -54.800781 97.078125 -55.28125 Z M 121.734375 -68.328125 C 124.335938 -78.390625 127.070312 -88.4375 129.9375 -98.46875 C 130.050781 -99.007812 130.472656 -100.582031 131.203125 -103.1875 C 131.929688 -105.800781 132.765625 -108.84375 133.703125 -112.3125 C 134.640625 -115.78125 135.488281 -119.046875 136.25 -122.109375 C 137.007812 -125.179688 137.519531 -127.472656 137.78125 -128.984375 C 138.039062 -130.492188 137.867188 -130.609375 137.265625 -129.328125 C 137.109375 -129.035156 136.992188 -128.75 136.921875 -128.46875 C 136.398438 -127.363281 135.90625 -126.265625 135.4375 -125.171875 C 131.550781 -116.253906 127.628906 -107.34375 123.671875 -98.4375 C 119.722656 -89.539062 115.578125 -80.734375 111.234375 -72.015625 C 110.796875 -71.179688 110.363281 -70.304688 109.9375 -69.390625 C 109.09375 -67.742188 108.269531 -66.082031 107.46875 -64.40625 C 107.132812 -63.707031 107.09375 -63.164062 107.34375 -62.78125 C 107.601562 -62.394531 108.070312 -62.257812 108.75 -62.375 C 109.882812 -62.5625 111.003906 -62.773438 112.109375 -63.015625 C 113.847656 -63.429688 115.585938 -63.785156 117.328125 -64.078125 C 118.660156 -64.234375 119.644531 -64.679688 120.28125 -65.421875 C 120.914062 -66.171875 121.398438 -67.140625 121.734375 -68.328125 Z M 121.734375 -68.328125 "/></g></g></g></g></g></g></svg>