<svg xmlns="http://www.w3.org/2000/svg" xmlns:xlink="http://www.w3.org/1999/xlink" width="2400" zoomAndPan="magnify" viewBox="0 0 1800 239.999995" height="320" preserveAspectRatio="xMidYMid meet" version="1.0"><defs><g/></defs><g fill="#141414" fill-opacity="1"><g transform="translate(100.383531, 182.605923)"><g><path d="M 347.453125 32.375 C 347.578125 32.4375 347.664062 32.582031 347.71875 32.8125 C 347.769531 33.039062 347.796875 33.21875 347.796875 33.34375 C 347.691406 33.570312 347.570312 33.75 347.4375 33.875 C 347.3125 34.007812 347.171875 34.125 347.015625 34.21875 C 346.367188 34.476562 345.734375 34.578125 345.109375 34.515625 C 344.460938 34.515625 343.847656 34.484375 343.265625 34.421875 C 342.972656 34.359375 342.726562 34.328125 342.53125 34.328125 C 339.507812 34.035156 336.507812 33.707031 333.53125 33.34375 C 326.519531 32.632812 319.554688 31.953125 312.640625 31.296875 C 299.203125 30.097656 285.75 29 272.28125 28 C 253.425781 26.695312 234.539062 25.6875 215.625 24.96875 C 202.050781 24.488281 188.484375 24.132812 174.921875 23.90625 C 173.421875 23.84375 171.910156 23.8125 170.390625 23.8125 C 168.828125 23.8125 167.300781 23.773438 165.8125 23.703125 C 156.59375 23.484375 147.375 23.375 138.15625 23.375 L 137.96875 23.375 C 132.550781 23.375 127.164062 23.484375 121.8125 23.703125 C 119.789062 23.773438 117.828125 23.8125 115.921875 23.8125 C 113.484375 23.875 111.015625 24.34375 108.515625 25.21875 C 89.785156 31.769531 70.863281 36.585938 51.75 39.671875 C 46.226562 40.585938 40.722656 41.351562 35.234375 41.96875 C 29.753906 42.582031 24.257812 42.890625 18.75 42.890625 C 16.957031 42.890625 15.171875 42.859375 13.390625 42.796875 C 10.691406 42.796875 8.09375 42.4375 5.59375 41.71875 C 4.59375 41.488281 3.65625 41.164062 2.78125 40.75 C 2 40.457031 1.335938 40.039062 0.796875 39.5 C 0.265625 38.96875 0.03125 38.234375 0.09375 37.296875 C 0.257812 36.378906 0.65625 35.597656 1.28125 34.953125 C 1.914062 34.304688 2.640625 33.769531 3.453125 33.34375 C 5.953125 31.914062 8.582031 30.957031 11.34375 30.46875 C 12.707031 30.113281 14.101562 29.789062 15.53125 29.5 C 20.164062 28.425781 24.835938 27.535156 29.546875 26.828125 C 48.398438 24.035156 67.191406 22.21875 85.921875 21.375 C 87.054688 21.269531 88.160156 21.1875 89.234375 21.125 C 95.015625 20.832031 100.789062 20.585938 106.5625 20.390625 C 108.644531 20.328125 110.722656 19.941406 112.796875 19.234375 C 119.941406 16.566406 126.976562 13.59375 133.90625 10.3125 C 140.832031 7.039062 147.609375 3.328125 154.234375 -0.828125 C 159.742188 -4.171875 164.820312 -8.128906 169.46875 -12.703125 C 172.09375 -15.203125 174.234375 -18.023438 175.890625 -21.171875 C 178.097656 -25.753906 177.691406 -29.71875 174.671875 -33.0625 C 172.535156 -35.257812 170.003906 -36.976562 167.078125 -38.21875 C 163.210938 -40 159.195312 -41.425781 155.03125 -42.5 C 150.863281 -43.570312 146.632812 -44.5 142.34375 -45.28125 C 130.207031 -47.257812 117.828125 -48.472656 105.203125 -48.921875 C 104.742188 -48.921875 104.304688 -48.921875 103.890625 -48.921875 C 103.398438 -48.921875 102.894531 -48.921875 102.375 -48.921875 C 101.3125 -48.765625 100.503906 -48.117188 99.953125 -46.984375 C 99.660156 -46.492188 99.398438 -46.019531 99.171875 -45.5625 C 98.617188 -44.488281 98.050781 -43.421875 97.46875 -42.359375 C 92.988281 -33.296875 88.523438 -24.269531 84.078125 -15.28125 C 80.378906 -7.625 76.628906 -0.015625 72.828125 7.546875 C 72.765625 7.835938 72.664062 8.082031 72.53125 8.28125 C 72.082031 9.21875 71.582031 10.109375 71.03125 10.953125 C 70.382812 11.671875 69.640625 11.960938 68.796875 11.828125 C 68.273438 11.890625 67.769531 11.859375 67.28125 11.734375 C 66.40625 11.273438 66.113281 10.59375 66.40625 9.6875 C 67.1875 7.675781 68.046875 5.710938 68.984375 3.796875 C 74.628906 -8.210938 80.273438 -20.171875 85.921875 -32.078125 C 87.773438 -35.878906 89.59375 -39.660156 91.375 -43.421875 C 91.507812 -43.773438 91.65625 -44.101562 91.8125 -44.40625 C 92.238281 -45.28125 92.628906 -46.140625 92.984375 -46.984375 C 93.472656 -48.273438 93.082031 -48.957031 91.8125 -49.03125 C 91.164062 -49.09375 90.519531 -49.125 89.875 -49.125 C 89.03125 -49.1875 88.203125 -49.25 87.390625 -49.3125 C 87.253906 -49.3125 87.070312 -49.3125 86.84375 -49.3125 C 85.875 -49.414062 84.957031 -49.585938 84.09375 -49.828125 C 83.238281 -50.066406 82.726562 -50.722656 82.5625 -51.796875 C 82.5625 -52.992188 82.972656 -53.882812 83.796875 -54.46875 C 84.628906 -55.0625 85.550781 -55.535156 86.5625 -55.890625 C 86.914062 -56.015625 87.238281 -56.113281 87.53125 -56.1875 C 90.226562 -57.320312 92.972656 -58.328125 95.765625 -59.203125 C 96.054688 -59.328125 96.378906 -59.421875 96.734375 -59.484375 C 98.878906 -60.140625 100.484375 -61.503906 101.546875 -63.578125 C 106.316406 -72.628906 111.109375 -81.671875 115.921875 -90.703125 C 117.535156 -93.816406 119.203125 -96.976562 120.921875 -100.1875 C 121.148438 -100.644531 121.363281 -101.082031 121.5625 -101.5 C 121.976562 -102.414062 122.484375 -103.3125 123.078125 -104.1875 C 123.785156 -105.25 124.707031 -105.671875 125.84375 -105.453125 C 126.363281 -105.515625 126.867188 -105.476562 127.359375 -105.34375 C 128.429688 -104.863281 128.753906 -104.039062 128.328125 -102.875 C 128.328125 -102.800781 128.296875 -102.765625 128.234375 -102.765625 C 127.421875 -100.335938 126.445312 -97.988281 125.3125 -95.71875 C 122.519531 -90.226562 119.664062 -84.722656 116.75 -79.203125 C 115.832031 -77.359375 114.875 -75.507812 113.875 -73.65625 C 113.351562 -72.71875 112.847656 -71.789062 112.359375 -70.875 C 111.515625 -69.289062 110.6875 -67.6875 109.875 -66.0625 C 109.875 -66.0625 109.84375 -66.015625 109.78125 -65.921875 C 109.644531 -65.660156 109.535156 -65.382812 109.453125 -65.09375 C 109.378906 -64.800781 109.519531 -64.585938 109.875 -64.453125 C 110.101562 -64.359375 110.332031 -64.28125 110.5625 -64.21875 L 110.75 -64.3125 C 111.175781 -64.40625 111.648438 -64.519531 112.171875 -64.65625 C 112.296875 -64.71875 112.425781 -64.78125 112.5625 -64.84375 C 128.195312 -69.78125 143.820312 -74.890625 159.4375 -80.171875 C 175.050781 -85.460938 190.566406 -91.144531 205.984375 -97.21875 C 206.335938 -97.351562 206.660156 -97.453125 206.953125 -97.515625 C 211.660156 -99.460938 216.347656 -101.414062 221.015625 -103.375 C 225.691406 -105.34375 230.316406 -107.460938 234.890625 -109.734375 C 238.304688 -111.390625 241.519531 -113.351562 244.53125 -115.625 C 250.957031 -120.84375 251.234375 -125.515625 245.359375 -129.640625 C 242.597656 -131.523438 239.585938 -132.960938 236.328125 -133.953125 C 233.066406 -134.941406 229.734375 -135.644531 226.328125 -136.0625 C 218.179688 -137.300781 209.9375 -137.921875 201.59375 -137.921875 L 201.453125 -137.921875 C 193.398438 -137.859375 185.269531 -137.46875 177.0625 -136.75 C 158.851562 -135.15625 140.675781 -132.070312 122.53125 -127.5 C 105.820312 -123.375 89.429688 -117.742188 73.359375 -110.609375 C 69.140625 -108.753906 65.035156 -106.644531 61.046875 -104.28125 C 59.910156 -103.5625 58.773438 -102.910156 57.640625 -102.328125 C 56.992188 -102.066406 56.378906 -102.003906 55.796875 -102.140625 C 55.015625 -102.003906 54.378906 -102.210938 53.890625 -102.765625 C 53.535156 -103.285156 53.519531 -103.753906 53.84375 -104.171875 C 54.164062 -104.597656 54.570312 -104.957031 55.0625 -105.25 C 58.5 -107.6875 62.066406 -109.71875 65.765625 -111.34375 C 65.835938 -111.34375 65.90625 -111.375 65.96875 -111.4375 C 81.125 -118.570312 96.617188 -124.285156 112.453125 -128.578125 C 135.304688 -134.867188 158.269531 -138.796875 181.34375 -140.359375 C 188.488281 -140.867188 195.597656 -141.125 202.671875 -141.125 C 210.359375 -141.195312 217.984375 -140.8125 225.546875 -139.96875 C 232.691406 -139.25 239.476562 -137.59375 245.90625 -135 C 248.914062 -133.863281 251.523438 -132.160156 253.734375 -129.890625 C 255.585938 -127.878906 256.40625 -125.660156 256.1875 -123.234375 C 255.976562 -120.816406 254.804688 -118.425781 252.671875 -116.0625 C 249.941406 -113.332031 246.90625 -111.078125 243.5625 -109.296875 C 239.5 -107.023438 235.359375 -104.960938 231.140625 -103.109375 C 226.921875 -101.265625 222.671875 -99.476562 218.390625 -97.75 C 218.265625 -97.6875 218.085938 -97.609375 217.859375 -97.515625 C 202.929688 -91.378906 187.878906 -85.691406 172.703125 -80.453125 C 157.523438 -75.210938 142.296875 -70.15625 127.015625 -65.28125 C 124.453125 -64.4375 121.890625 -63.578125 119.328125 -62.703125 C 115.753906 -61.503906 112.179688 -60.335938 108.609375 -59.203125 C 107.054688 -58.835938 105.804688 -57.976562 104.859375 -56.625 C 104.078125 -55.320312 103.734375 -54.3125 103.828125 -53.59375 C 103.929688 -52.882812 104.75 -52.5 106.28125 -52.4375 C 110.332031 -52.300781 114.390625 -52.085938 118.453125 -51.796875 C 118.742188 -51.796875 119 -51.796875 119.21875 -51.796875 C 126.914062 -51.304688 134.507812 -50.484375 142 -49.328125 C 149.5 -48.179688 156.820312 -46.503906 163.96875 -44.296875 C 167.050781 -43.296875 170.019531 -42.160156 172.875 -40.890625 C 174.789062 -40.015625 176.609375 -38.945312 178.328125 -37.6875 C 185.691406 -31.96875 186.226562 -24.773438 179.9375 -16.109375 C 177.851562 -13.253906 175.46875 -10.660156 172.78125 -8.328125 C 166.125 -2.609375 158.984375 2.320312 151.359375 6.46875 C 144.765625 10.101562 138.078125 13.460938 131.296875 16.546875 C 130.515625 16.804688 129.703125 17.164062 128.859375 17.625 C 128.441406 17.820312 127.972656 18.03125 127.453125 18.25 C 127.867188 18.90625 128.253906 19.296875 128.609375 19.421875 C 128.972656 19.554688 129.382812 19.585938 129.84375 19.515625 C 129.84375 19.515625 129.875 19.515625 129.9375 19.515625 C 131.132812 19.585938 132.300781 19.625 133.4375 19.625 L 133.59375 19.625 C 134.363281 19.625 135.140625 19.585938 135.921875 19.515625 C 139.492188 19.515625 143.066406 19.515625 146.640625 19.515625 C 167.828125 19.585938 188.921875 20.0625 209.921875 20.9375 C 232.765625 21.71875 255.515625 23.113281 278.171875 25.125 C 285.378906 25.738281 292.585938 26.367188 299.796875 27.015625 C 308.492188 27.734375 317.175781 28.484375 325.84375 29.265625 C 330.90625 29.773438 335.929688 30.390625 340.921875 31.109375 C 342.128906 31.234375 343.378906 31.378906 344.671875 31.546875 C 345.585938 31.671875 346.515625 31.945312 347.453125 32.375 Z M 95.65625 -53.203125 C 95.789062 -53.273438 95.929688 -53.414062 96.078125 -53.625 C 96.222656 -53.832031 96.328125 -54.003906 96.390625 -54.140625 C 96.390625 -54.296875 96.359375 -54.40625 96.296875 -54.46875 C 96.234375 -54.539062 96.117188 -54.65625 95.953125 -54.8125 C 95.953125 -54.8125 95.921875 -54.847656 95.859375 -54.921875 C 95.078125 -54.753906 94.363281 -54.363281 93.71875 -53.75 C 93.582031 -53.582031 93.53125 -53.410156 93.5625 -53.234375 C 93.601562 -53.054688 93.734375 -52.96875 93.953125 -52.96875 C 94.503906 -52.96875 95.070312 -53.046875 95.65625 -53.203125 Z M 90.3125 26.734375 C 90.4375 26.628906 90.582031 26.578125 90.75 26.578125 C 91.007812 26.515625 91.285156 26.394531 91.578125 26.21875 C 91.867188 26.039062 92.078125 25.769531 92.203125 25.40625 C 92.078125 25.113281 91.945312 24.9375 91.8125 24.875 C 91.71875 24.875 91.640625 24.875 91.578125 24.875 C 74.304688 25.65625 56.988281 27.117188 39.625 29.265625 C 31.0625 30.265625 22.523438 31.867188 14.015625 34.078125 C 13.828125 34.171875 13.617188 34.253906 13.390625 34.328125 C 11.898438 34.617188 10.550781 35.21875 9.34375 36.125 C 9.050781 36.351562 8.863281 36.601562 8.78125 36.875 C 8.707031 37.15625 8.847656 37.40625 9.203125 37.625 C 9.910156 37.914062 10.671875 38.160156 11.484375 38.359375 C 14.242188 38.878906 17.050781 39.140625 19.90625 39.140625 C 22.34375 39.140625 24.78125 39.023438 27.21875 38.796875 C 48.34375 37.015625 69.375 32.992188 90.3125 26.734375 Z M 90.3125 26.734375 "/></g></g></g><g fill="#141414" fill-opacity="1"><g transform="translate(333.265386, 182.605923)"><g><path d="M 23.5625 -23.21875 C 24.632812 -24.289062 25.523438 -24.890625 26.234375 -25.015625 C 26.953125 -25.148438 27.414062 -25.035156 27.625 -24.671875 C 27.832031 -24.316406 27.695312 -23.832031 27.21875 -23.21875 C 24.363281 -19.78125 21.164062 -16.8125 17.625 -14.3125 C 14.082031 -11.8125 10.4375 -10.363281 6.6875 -9.96875 C 2.945312 -9.582031 0.6875 -11.628906 -0.09375 -16.109375 C -0.675781 -20.554688 2.015625 -29.613281 7.984375 -43.28125 C 13.953125 -56.945312 18.675781 -68.144531 22.15625 -76.875 C 22.445312 -77.65625 22.882812 -78.335938 23.46875 -78.921875 C 24.25 -79.691406 25.171875 -79.867188 26.234375 -79.453125 C 26.597656 -79.285156 26.957031 -79.023438 27.3125 -78.671875 C 27.664062 -78.316406 27.78125 -77.679688 27.65625 -76.765625 C 12.300781 -40.359375 4.863281 -20.5625 5.34375 -17.375 C 5.832031 -14.195312 7.882812 -13.410156 11.5 -15.015625 C 15.125 -16.617188 17.914062 -18.253906 19.875 -19.921875 C 21.84375 -21.597656 23.070312 -22.695312 23.5625 -23.21875 Z M 23.5625 -23.21875 "/></g></g></g><g fill="#141414" fill-opacity="1"><g transform="translate(397.236528, 182.605923)"><g><path d="M 19.34375 -20.515625 C 17.613281 -18.453125 15.5625 -16.5625 13.1875 -14.84375 C 10.820312 -13.125 8.144531 -11.960938 5.15625 -11.359375 C 2.175781 -10.765625 -0.140625 -10.984375 -1.796875 -12.015625 C -3.453125 -13.054688 -3.78125 -15.363281 -2.78125 -18.9375 C -1.476562 -22.632812 0.304688 -26.15625 2.578125 -29.5 C 3.097656 -30.21875 3.84375 -30.722656 4.8125 -31.015625 C 5.53125 -31.171875 6.15625 -31.046875 6.6875 -30.640625 C 7.226562 -30.234375 7.429688 -29.722656 7.296875 -29.109375 C 6.816406 -27.941406 6.28125 -26.773438 5.6875 -25.609375 C 5.101562 -24.441406 4.71875 -23.675781 4.53125 -23.3125 C 3.394531 -21.238281 2.597656 -19.066406 2.140625 -16.796875 C 2.140625 -15.492188 3.875 -15.410156 7.34375 -16.546875 C 10.820312 -17.679688 14.195312 -19.765625 17.46875 -22.796875 C 20.75 -25.835938 22.316406 -26.734375 22.171875 -25.484375 C 22.023438 -24.234375 21.082031 -22.578125 19.34375 -20.515625 Z M 10.859375 -36.796875 C 10.691406 -36.671875 10.359375 -36.519531 9.859375 -36.34375 C 9.359375 -36.164062 8.820312 -36.035156 8.25 -35.953125 C 7.6875 -35.867188 7.238281 -35.957031 6.90625 -36.21875 C 6.582031 -36.476562 6.566406 -37 6.859375 -37.78125 C 7.378906 -39.144531 7.921875 -40.335938 8.484375 -41.359375 C 9.054688 -42.378906 9.796875 -43.503906 10.703125 -44.734375 C 11.296875 -45.285156 11.929688 -45.585938 12.609375 -45.640625 C 13.285156 -45.691406 13.851562 -45.515625 14.3125 -45.109375 C 14.769531 -44.703125 14.898438 -44.140625 14.703125 -43.421875 C 13.984375 -40.859375 12.703125 -38.648438 10.859375 -36.796875 Z M 10.859375 -36.796875 "/></g></g></g><g fill="#141414" fill-opacity="1"><g transform="translate(455.901823, 182.605923)"><g><path d="M 23.5625 -24.6875 C 18.4375 -22.769531 14.738281 -21.210938 12.46875 -20.015625 C 10.8125 -19.203125 9.859375 -18.523438 9.609375 -17.984375 C 9.367188 -17.453125 9.554688 -16.472656 10.171875 -15.046875 C 10.171875 -14.984375 10.222656 -14.882812 10.328125 -14.75 C 11.035156 -13.03125 11.457031 -11.242188 11.59375 -9.390625 C 11.8125 -5.660156 8.632812 -3.046875 2.0625 -1.546875 C -4.507812 -0.0546875 -8.90625 -0.0078125 -11.125 -1.40625 C -13.34375 -2.800781 -14.019531 -4.570312 -13.15625 -6.71875 C -12.300781 -8.863281 -10.070312 -11.035156 -6.46875 -13.234375 C -2.875 -15.441406 -0.46875 -17.03125 0.75 -18 C 1.96875 -18.976562 2.332031 -20.070312 1.84375 -21.28125 C 1.6875 -21.695312 1.507812 -22.117188 1.3125 -22.546875 C 0.894531 -23.546875 0.457031 -24.582031 0 -25.65625 C -0.84375 -27.601562 -1.207031 -29.515625 -1.09375 -31.390625 C -0.976562 -33.273438 -0.28125 -34.859375 1 -36.140625 C 2.28125 -37.421875 4.269531 -38.113281 6.96875 -38.21875 C 8.488281 -38.28125 9.847656 -38.078125 11.046875 -37.609375 C 12.253906 -37.140625 13.210938 -36.269531 13.921875 -35 C 14.503906 -34.125 14.328125 -33.332031 13.390625 -32.625 C 12.773438 -32.132812 12.109375 -32.066406 11.390625 -32.421875 C 10.929688 -32.617188 10.492188 -32.894531 10.078125 -33.25 C 10.078125 -33.34375 10.078125 -33.390625 10.078125 -33.390625 C 9.878906 -33.523438 9.703125 -33.65625 9.546875 -33.78125 C 9.347656 -34.070312 9.132812 -34.300781 8.90625 -34.46875 C 8.0625 -35.082031 7.207031 -35.265625 6.34375 -35.015625 C 5.488281 -34.773438 4.851562 -34.125 4.4375 -33.0625 C 4.132812 -32.21875 3.984375 -31.351562 3.984375 -30.46875 C 4.054688 -29.40625 4.300781 -28.367188 4.71875 -27.359375 C 5.007812 -26.742188 5.269531 -26.175781 5.5 -25.65625 C 6.050781 -24.226562 6.503906 -23.242188 6.859375 -22.703125 C 7.222656 -22.171875 7.65625 -21.945312 8.15625 -22.03125 C 8.65625 -22.113281 13.253906 -23.757812 21.953125 -26.96875 C 23.835938 -27.582031 24.375 -26.820312 23.5625 -24.6875 Z M 2.484375 -6.078125 C 4.753906 -6.859375 5.710938 -8.382812 5.359375 -10.65625 C 5.359375 -10.820312 5.320312 -11.003906 5.25 -11.203125 C 5.125 -12.429688 4.863281 -13.378906 4.46875 -14.046875 C 4.082031 -14.710938 3.207031 -14.6875 1.84375 -13.96875 C -1.53125 -12.050781 -4.644531 -9.8125 -7.5 -7.25 C -7.695312 -7.019531 -7.875 -6.8125 -8.03125 -6.625 C -8.03125 -6.625 -8.0625 -6.570312 -8.125 -6.46875 C -8.320312 -6.207031 -8.351562 -5.914062 -8.21875 -5.59375 C -8.09375 -5.269531 -7.800781 -5.109375 -7.34375 -5.109375 C -4.007812 -4.585938 -0.734375 -4.910156 2.484375 -6.078125 Z M 2.484375 -6.078125 "/></g></g></g><g fill="#141414" fill-opacity="1"><g transform="translate(517.147027, 182.605923)"><g><path d="M 38.5625 -24.296875 C 39.082031 -23.640625 38.429688 -22.453125 36.609375 -20.734375 C 34.796875 -19.015625 32.863281 -17.570312 30.8125 -16.40625 C 28.769531 -15.238281 26.398438 -14.070312 23.703125 -12.90625 C 21.921875 -12.125 20.023438 -11.863281 18.015625 -12.125 C 16.003906 -12.382812 15 -13.597656 15 -15.765625 C 15 -17.941406 15.5 -20.101562 16.5 -22.25 C 17.507812 -24.457031 17.726562 -25.59375 17.15625 -25.65625 C 16.59375 -25.71875 15.414062 -25.179688 13.625 -24.046875 C 8.988281 -20.992188 4.675781 -17.503906 0.6875 -13.578125 C -0.382812 -12.285156 -1.75 -11.570312 -3.40625 -11.4375 C -4.25 -11.4375 -4.90625 -11.703125 -5.375 -12.234375 C -5.84375 -12.773438 -5.898438 -13.351562 -5.546875 -13.96875 C -2.691406 -19.257812 0.191406 -24.484375 3.109375 -29.640625 C 3.765625 -30.710938 4.738281 -31.378906 6.03125 -31.640625 C 6.582031 -31.742188 7.09375 -31.570312 7.5625 -31.125 C 8.039062 -30.6875 8.28125 -30.191406 8.28125 -29.640625 C 8.207031 -29.128906 7.992188 -28.515625 7.640625 -27.796875 C 7.484375 -27.378906 7.332031 -26.972656 7.1875 -26.578125 C 7.039062 -26.191406 6.988281 -25.867188 7.03125 -25.609375 C 7.082031 -25.347656 7.285156 -25.265625 7.640625 -25.359375 C 8.128906 -25.617188 8.617188 -25.894531 9.109375 -26.1875 C 10.335938 -26.90625 11.519531 -27.585938 12.65625 -28.234375 C 13.664062 -28.816406 14.722656 -29.332031 15.828125 -29.78125 C 16.929688 -30.238281 18.082031 -30.550781 19.28125 -30.71875 C 21.226562 -30.84375 22.609375 -30.398438 23.421875 -29.390625 C 24.234375 -28.390625 24.328125 -27 23.703125 -25.21875 C 23.054688 -23.59375 22.375 -21.984375 21.65625 -20.390625 C 20.78125 -18.898438 20.632812 -17.765625 21.21875 -16.984375 C 21.8125 -16.210938 24.523438 -17.109375 29.359375 -19.671875 L 33 -21.8125 C 36.445312 -24.019531 38.300781 -24.847656 38.5625 -24.296875 Z M 38.5625 -24.296875 "/></g></g></g><g fill="#141414" fill-opacity="1"><g transform="translate(592.508702, 182.605923)"><g><path d="M 19.34375 -20.515625 C 17.613281 -18.453125 15.5625 -16.5625 13.1875 -14.84375 C 10.820312 -13.125 8.144531 -11.960938 5.15625 -11.359375 C 2.175781 -10.765625 -0.140625 -10.984375 -1.796875 -12.015625 C -3.453125 -13.054688 -3.78125 -15.363281 -2.78125 -18.9375 C -1.476562 -22.632812 0.304688 -26.15625 2.578125 -29.5 C 3.097656 -30.21875 3.84375 -30.722656 4.8125 -31.015625 C 5.53125 -31.171875 6.15625 -31.046875 6.6875 -30.640625 C 7.226562 -30.234375 7.429688 -29.722656 7.296875 -29.109375 C 6.816406 -27.941406 6.28125 -26.773438 5.6875 -25.609375 C 5.101562 -24.441406 4.71875 -23.675781 4.53125 -23.3125 C 3.394531 -21.238281 2.597656 -19.066406 2.140625 -16.796875 C 2.140625 -15.492188 3.875 -15.410156 7.34375 -16.546875 C 10.820312 -17.679688 14.195312 -19.765625 17.46875 -22.796875 C 20.75 -25.835938 22.316406 -26.734375 22.171875 -25.484375 C 22.023438 -24.234375 21.082031 -22.578125 19.34375 -20.515625 Z M 10.859375 -36.796875 C 10.691406 -36.671875 10.359375 -36.519531 9.859375 -36.34375 C 9.359375 -36.164062 8.820312 -36.035156 8.25 -35.953125 C 7.6875 -35.867188 7.238281 -35.957031 6.90625 -36.21875 C 6.582031 -36.476562 6.566406 -37 6.859375 -37.78125 C 7.378906 -39.144531 7.921875 -40.335938 8.484375 -41.359375 C 9.054688 -42.378906 9.796875 -43.503906 10.703125 -44.734375 C 11.296875 -45.285156 11.929688 -45.585938 12.609375 -45.640625 C 13.285156 -45.691406 13.851562 -45.515625 14.3125 -45.109375 C 14.769531 -44.703125 14.898438 -44.140625 14.703125 -43.421875 C 13.984375 -40.859375 12.703125 -38.648438 10.859375 -36.796875 Z M 10.859375 -36.796875 "/></g></g></g><g fill="#141414" fill-opacity="1"><g transform="translate(651.173996, 182.605923)"><g><path d="M 1.21875 -8.609375 C -1.863281 -8.609375 -3.40625 -10.21875 -3.40625 -13.4375 C -3.40625 -17.363281 -0.859375 -24.289062 4.234375 -34.21875 C 4.429688 -34.644531 4.789062 -34.859375 5.3125 -34.859375 C 7.351562 -34.859375 8.375 -34.046875 8.375 -32.421875 C 8.375 -31.835938 8.195312 -31.125 7.84375 -30.28125 C 7.707031 -30.050781 6 -25.765625 2.71875 -17.421875 C 2.207031 -16.066406 1.953125 -15.0625 1.953125 -14.40625 C 1.953125 -13.695312 2.273438 -13.34375 2.921875 -13.34375 C 5.285156 -13.34375 11.5 -19.234375 21.5625 -31.015625 C 22.863281 -32.597656 24.144531 -33.390625 25.40625 -33.390625 C 27.257812 -33.390625 28.1875 -32.710938 28.1875 -31.359375 C 28.1875 -30.835938 27.617188 -28.875 26.484375 -25.46875 C 24.921875 -20.820312 24.140625 -18.140625 24.140625 -17.421875 C 24.140625 -16.359375 24.5 -15.828125 25.21875 -15.828125 C 27 -15.828125 32.207031 -19.003906 40.84375 -25.359375 C 41.332031 -25.785156 41.753906 -26 42.109375 -26 C 42.921875 -26 43.328125 -25.316406 43.328125 -23.953125 C 43.328125 -23.597656 43.210938 -23.304688 42.984375 -23.078125 C 38.410156 -19.148438 34.515625 -16.164062 31.296875 -14.125 C 28.378906 -12.238281 25.785156 -11.296875 23.515625 -11.296875 L 22.828125 -11.296875 C 19.484375 -12.003906 17.8125 -14.613281 17.8125 -19.125 C 14.25 -15.976562 11.289062 -13.4375 8.9375 -11.5 C 6.582031 -9.570312 4.007812 -8.609375 1.21875 -8.609375 Z M 1.21875 -8.609375 "/></g></g></g><g fill="#141414" fill-opacity="1"><g transform="translate(730.867946, 182.605923)"><g><path d="M 37.734375 -24.828125 C 37.992188 -24.472656 38.054688 -24.113281 37.921875 -23.75 C 37.796875 -23.394531 37.550781 -23.070312 37.1875 -22.78125 C 34.945312 -20.769531 32.453125 -19.164062 29.703125 -17.96875 C 24.960938 -15.757812 19.992188 -14.394531 14.796875 -13.875 C 10.710938 -13.445312 6.816406 -14.0625 3.109375 -15.71875 C 1.753906 -16.34375 0.75 -16.019531 0.09375 -14.75 C -0.8125 -12.96875 -1.769531 -11.179688 -2.78125 -9.390625 C -3.257812 -8.390625 -3.789062 -7.351562 -4.375 -6.28125 C -4.445312 -6.144531 -4.515625 -6 -4.578125 -5.84375 C -4.804688 -5.488281 -5.023438 -5.144531 -5.234375 -4.8125 C -5.441406 -4.488281 -5.804688 -4.265625 -6.328125 -4.140625 C -6.585938 -4.078125 -6.863281 -4.046875 -7.15625 -4.046875 C -7.445312 -4.046875 -7.707031 -4.109375 -7.9375 -4.234375 C -8.132812 -4.398438 -8.304688 -4.617188 -8.453125 -4.890625 C -8.597656 -5.171875 -8.671875 -5.457031 -8.671875 -5.75 C -8.441406 -6.6875 -8.113281 -7.609375 -7.6875 -8.515625 C -6.78125 -10.597656 -5.890625 -12.644531 -5.015625 -14.65625 C -2.804688 -19.78125 -0.484375 -24.84375 1.953125 -29.84375 C 8.671875 -43.632812 15.0625 -57.554688 21.125 -71.609375 C 21.613281 -72.972656 22.28125 -74.191406 23.125 -75.265625 C 23.769531 -76.046875 24.660156 -76.253906 25.796875 -75.890625 C 26.960938 -75.410156 27.320312 -74.585938 26.875 -73.421875 C 26.09375 -71.015625 25.25 -68.59375 24.34375 -66.15625 C 19.832031 -55.03125 14.898438 -44.109375 9.546875 -33.390625 C 8.410156 -31.085938 8.003906 -29.632812 8.328125 -29.03125 C 8.648438 -28.4375 9.410156 -28.390625 10.609375 -28.890625 C 11.816406 -29.390625 13.210938 -30.0625 14.796875 -30.90625 C 15.929688 -31.5625 17.066406 -32.132812 18.203125 -32.625 C 18.429688 -32.78125 18.644531 -32.890625 18.84375 -32.953125 C 20.207031 -33.734375 21.679688 -34.15625 23.265625 -34.21875 C 23.890625 -34.21875 24.347656 -33.941406 24.640625 -33.390625 C 24.796875 -33.035156 24.800781 -32.726562 24.65625 -32.46875 C 24.507812 -32.207031 24.320312 -32.015625 24.09375 -31.890625 C 21.664062 -30.460938 19.203125 -29.097656 16.703125 -27.796875 C 15.492188 -27.242188 14.242188 -26.644531 12.953125 -26 C 11.679688 -25.414062 10.429688 -24.796875 9.203125 -24.140625 C 8.359375 -23.660156 7.578125 -23.09375 6.859375 -22.4375 C 5.203125 -20.71875 5.382812 -19.289062 7.40625 -18.15625 C 9.050781 -17.445312 10.707031 -17.070312 12.375 -17.03125 C 14.050781 -17 15.71875 -17.195312 17.375 -17.625 C 22.507812 -18.757812 27.332031 -20.625 31.84375 -23.21875 C 32.195312 -23.414062 32.550781 -23.59375 32.90625 -23.75 C 33.75 -24.300781 34.644531 -24.789062 35.59375 -25.21875 C 35.945312 -25.382812 36.332031 -25.445312 36.75 -25.40625 C 37.175781 -25.375 37.503906 -25.179688 37.734375 -24.828125 Z M 37.734375 -24.828125 "/></g></g></g><g fill="#141414" fill-opacity="1"><g transform="translate(804.817969, 182.605923)"><g/></g></g><g fill="#141414" fill-opacity="1"><g transform="translate(881.299196, 182.605923)"><g><path d="M 103.15625 -39.578125 C 103.507812 -38.734375 103.722656 -37.84375 103.796875 -36.90625 C 103.984375 -33.039062 103.613281 -28.753906 102.6875 -24.046875 C 101.769531 -19.335938 100.191406 -14.695312 97.953125 -10.125 C 95.710938 -5.550781 92.765625 -1.644531 89.109375 1.59375 C 85.460938 4.84375 81.078125 6.859375 75.953125 7.640625 C 68.640625 8.710938 62.390625 7.492188 57.203125 3.984375 C 54.054688 1.785156 51.523438 -0.953125 49.609375 -4.234375 C 48.890625 -5.367188 48.175781 -6.554688 47.46875 -7.796875 C 47.113281 -8.335938 46.707031 -8.9375 46.25 -9.59375 C 44.46875 -8.75 42.859375 -7.644531 41.421875 -6.28125 C 40.941406 -5.851562 40.457031 -5.460938 39.96875 -5.109375 C 39.875 -5.046875 39.757812 -4.929688 39.625 -4.765625 C 35.695312 -1.554688 31.5625 1.394531 27.21875 4.09375 C 22.570312 6.8125 17.929688 8.023438 13.296875 7.734375 C 9.296875 7.441406 6.46875 6.015625 4.8125 3.453125 C 3.164062 0.890625 2.988281 -2.414062 4.28125 -6.46875 C 5.0625 -8.96875 6.179688 -11.328125 7.640625 -13.546875 C 9.097656 -15.773438 10.722656 -17.929688 12.515625 -20.015625 C 15.171875 -23.054688 17.972656 -25.957031 20.921875 -28.71875 C 23.878906 -31.476562 26.9375 -34.171875 30.09375 -36.796875 C 32.8125 -39.078125 35.597656 -41.285156 38.453125 -43.421875 C 40.535156 -44.953125 41.640625 -46.820312 41.765625 -49.03125 C 42.484375 -56.164062 44.023438 -63.367188 46.390625 -70.640625 C 47.953125 -75.640625 50.273438 -80.492188 53.359375 -85.203125 C 58.617188 -93.148438 65.46875 -96.894531 73.90625 -96.4375 C 78.125 -96.375 81.691406 -95.207031 84.609375 -92.9375 C 89.835938 -88.488281 90.195312 -82.515625 85.6875 -75.015625 C 83.601562 -71.960938 81.132812 -69.109375 78.28125 -66.453125 C 75.582031 -63.890625 72.765625 -61.460938 69.828125 -59.171875 C 66.898438 -56.890625 63.941406 -54.675781 60.953125 -52.53125 C 60.597656 -52.269531 60.238281 -52.023438 59.875 -51.796875 C 57.15625 -49.785156 54.476562 -47.789062 51.84375 -45.8125 C 50.707031 -45.09375 50.09375 -44.203125 50 -43.140625 C 49.9375 -42.191406 49.90625 -41.265625 49.90625 -40.359375 C 49.832031 -37.503906 49.882812 -34.695312 50.0625 -31.9375 C 50.25 -29.175781 50.765625 -26.546875 51.609375 -24.046875 C 51.703125 -23.984375 51.8125 -23.921875 51.9375 -23.859375 C 52.007812 -23.785156 52.046875 -23.75 52.046875 -23.75 C 53.703125 -24.59375 55.160156 -25.617188 56.421875 -26.828125 C 56.878906 -27.179688 57.316406 -27.585938 57.734375 -28.046875 C 66.859375 -35.378906 76.207031 -42.375 85.78125 -49.03125 C 87.144531 -49.9375 88.539062 -50.828125 89.96875 -51.703125 C 91.394531 -52.609375 92.851562 -52.960938 94.34375 -52.765625 C 95.21875 -52.703125 95.785156 -52.347656 96.046875 -51.703125 C 96.210938 -51.179688 96.148438 -50.765625 95.859375 -50.453125 C 95.566406 -50.148438 95.242188 -49.851562 94.890625 -49.5625 C 94.046875 -48.84375 93.179688 -48.128906 92.296875 -47.421875 C 91.453125 -46.835938 90.644531 -46.1875 89.875 -45.46875 C 88.082031 -44.101562 86.328125 -42.707031 84.609375 -41.28125 C 75.203125 -33.71875 65.804688 -26.125 56.421875 -18.5 C 54.992188 -17.363281 54.175781 -16.46875 53.96875 -15.8125 C 53.757812 -15.164062 53.910156 -14.273438 54.421875 -13.140625 C 55.984375 -9.347656 58.015625 -5.957031 60.515625 -2.96875 C 62.523438 -0.601562 65.023438 1.179688 68.015625 2.390625 C 72.160156 3.816406 75.90625 3.816406 79.25 2.390625 C 82.59375 0.960938 85.484375 -1.390625 87.921875 -4.671875 C 90.359375 -7.953125 92.304688 -11.644531 93.765625 -15.75 C 95.222656 -19.851562 96.128906 -23.851562 96.484375 -27.75 C 96.847656 -31.644531 96.609375 -34.90625 95.765625 -37.53125 C 95.765625 -37.882812 95.726562 -38.210938 95.65625 -38.515625 C 95.5 -38.929688 95.421875 -39.367188 95.421875 -39.828125 C 95.421875 -40.304688 95.582031 -40.707031 95.90625 -41.03125 C 96.226562 -41.363281 96.632812 -41.59375 97.125 -41.71875 C 100.207031 -42.59375 102.21875 -41.878906 103.15625 -39.578125 Z M 59.25 -80.71875 C 57.882812 -78.28125 56.753906 -75.828125 55.859375 -73.359375 C 54.972656 -70.898438 54.171875 -68.421875 53.453125 -65.921875 C 53.222656 -65.003906 53.015625 -64.046875 52.828125 -63.046875 C 52.234375 -60.546875 51.726562 -58.015625 51.3125 -55.453125 C 51.144531 -54.867188 51.28125 -54.484375 51.71875 -54.296875 C 52.164062 -54.117188 52.660156 -54.210938 53.203125 -54.578125 C 56.648438 -56.941406 60.007812 -59.390625 63.28125 -61.921875 C 66.5625 -64.453125 69.710938 -67.210938 72.734375 -70.203125 C 74.941406 -72.441406 76.757812 -74.84375 78.1875 -77.40625 C 81.394531 -84.125 80.207031 -88.734375 74.625 -91.234375 C 71.9375 -92.367188 69.128906 -91.75 66.203125 -89.375 C 64.679688 -88.175781 63.367188 -86.847656 62.265625 -85.390625 C 61.160156 -83.929688 60.15625 -82.375 59.25 -80.71875 Z M 41.96875 -14.953125 C 43.394531 -16.179688 43.863281 -17.507812 43.375 -18.9375 C 42.070312 -24 41.328125 -29.304688 41.140625 -34.859375 C 41.140625 -35.148438 41.054688 -35.503906 40.890625 -35.921875 C 40.765625 -36.210938 40.671875 -36.570312 40.609375 -37 C 36.253906 -33.71875 32.234375 -30.347656 28.546875 -26.890625 C 24.867188 -23.441406 21.457031 -19.785156 18.3125 -15.921875 C 15.382812 -12.347656 13.421875 -8.566406 12.421875 -4.578125 C 11.929688 -2.429688 12.1875 -0.566406 13.1875 1.015625 C 14.320312 2.992188 16.285156 3.304688 19.078125 1.953125 C 20.578125 1.328125 22.007812 0.546875 23.375 -0.390625 C 28.726562 -4.085938 33.898438 -8.078125 38.890625 -12.359375 C 39.867188 -13.242188 40.894531 -14.109375 41.96875 -14.953125 Z M 41.96875 -14.953125 "/></g></g></g><g fill="#141414" fill-opacity="1"><g transform="translate(1022.719413, 182.605923)"><g/></g></g><g fill="#141414" fill-opacity="1"><g transform="translate(1099.200652, 182.605923)"><g/></g></g><g fill="#141414" fill-opacity="1"><g transform="translate(1175.684244, 182.605923)"><g><path d="M 263.125 -44.5 C 256.925781 -45.207031 250.679688 -45.5625 244.390625 -45.5625 C 241.628906 -45.664062 238.820312 -45.75 235.96875 -45.8125 C 209.96875 -46.882812 183.90625 -47.160156 157.78125 -46.640625 C 156.476562 -46.640625 155.40625 -46.640625 154.5625 -46.640625 C 153.132812 -46.734375 152.097656 -46.722656 151.453125 -46.609375 C 150.804688 -46.492188 150.285156 -46.132812 149.890625 -45.53125 C 149.503906 -44.9375 149.050781 -43.957031 148.53125 -42.59375 C 148.175781 -41.8125 147.753906 -40.835938 147.265625 -39.671875 C 142.921875 -30.203125 138.929688 -20.566406 135.296875 -10.765625 C 132.921875 -4.429688 131.085938 2.0625 129.796875 8.71875 C 129.304688 10.789062 129.132812 12.804688 129.28125 14.765625 C 129.425781 16.734375 130.3125 18.5 131.9375 20.0625 C 132.15625 20.21875 132.234375 20.414062 132.171875 20.65625 C 132.109375 20.90625 131.960938 21.132812 131.734375 21.34375 C 131.503906 21.550781 131.257812 21.691406 131 21.765625 C 127.144531 22.347656 124.828125 20.96875 124.046875 17.625 C 123.585938 15.738281 123.503906 13.804688 123.796875 11.828125 C 123.796875 11.671875 123.796875 11.554688 123.796875 11.484375 C 124.085938 8.078125 124.695312 4.691406 125.625 1.328125 C 126.550781 -2.023438 127.582031 -5.390625 128.71875 -8.765625 C 132.382812 -18.890625 136.425781 -28.882812 140.84375 -38.75 C 141.070312 -39.175781 141.25 -39.597656 141.375 -40.015625 C 141.601562 -40.503906 141.847656 -41.007812 142.109375 -41.53125 C 142.460938 -42.238281 142.785156 -42.945312 143.078125 -43.65625 C 143.367188 -44.375 143.484375 -45.125 143.421875 -45.90625 C 143.066406 -46.195312 142.707031 -46.375 142.34375 -46.4375 C 141.988281 -46.507812 141.632812 -46.507812 141.28125 -46.4375 C 141.21875 -46.4375 141.132812 -46.4375 141.03125 -46.4375 C 137.976562 -46.4375 134.910156 -46.40625 131.828125 -46.34375 C 130.984375 -46.34375 130.09375 -46.34375 129.15625 -46.34375 C 128.019531 -46.28125 127.0625 -45.921875 126.28125 -45.265625 C 125.5 -44.617188 124.753906 -43.828125 124.046875 -42.890625 C 123.109375 -41.691406 122.164062 -40.488281 121.21875 -39.28125 C 117.226562 -34.1875 113.203125 -29.140625 109.140625 -24.140625 C 103.140625 -16.867188 96.867188 -9.859375 90.328125 -3.109375 C 83.785156 3.640625 76.847656 9.96875 69.515625 15.875 C 60.296875 23.46875 50.507812 30.148438 40.15625 35.921875 C 24.320312 44.429688 7.722656 48.457031 -9.640625 48 C -25.992188 47.644531 -40.742188 43.234375 -53.890625 34.765625 C -57.585938 32.390625 -60.863281 29.53125 -63.71875 26.1875 C -65.632812 23.820312 -67.148438 21.265625 -68.265625 18.515625 C -69.390625 15.773438 -69.953125 12.800781 -69.953125 9.59375 C -69.796875 5.726562 -68.910156 2.148438 -67.296875 -1.140625 C -65.691406 -4.429688 -63.460938 -7.425781 -60.609375 -10.125 C -56.679688 -13.925781 -52.363281 -17.140625 -47.65625 -19.765625 C -43.082031 -22.421875 -38.367188 -24.75 -33.515625 -26.75 C -28.660156 -28.75 -23.769531 -30.523438 -18.84375 -32.078125 C -10.851562 -34.640625 -2.785156 -36.796875 5.359375 -38.546875 C 13.503906 -40.304688 21.679688 -41.800781 29.890625 -43.03125 C 49.359375 -45.726562 68.878906 -47.515625 88.453125 -48.390625 C 98.453125 -49.003906 108.414062 -49.3125 118.34375 -49.3125 C 121.070312 -49.25 123.179688 -50.398438 124.671875 -52.765625 C 127.304688 -56.472656 129.953125 -60.191406 132.609375 -63.921875 C 136.734375 -69.628906 140.789062 -75.4375 144.78125 -81.34375 C 163.34375 -109.0625 181.128906 -137.234375 198.140625 -165.859375 C 199.566406 -168.296875 200.960938 -170.765625 202.328125 -173.265625 C 202.972656 -174.523438 203.65625 -175.804688 204.375 -177.109375 C 205.21875 -178.765625 206.5625 -179.691406 208.40625 -179.890625 C 209.414062 -179.890625 210.15625 -179.601562 210.625 -179.03125 C 211.09375 -178.46875 211.148438 -177.710938 210.796875 -176.765625 C 210.441406 -175.984375 210.035156 -175.238281 209.578125 -174.53125 C 206.816406 -169.59375 204.367188 -164.59375 202.234375 -159.53125 C 201.421875 -157.75 200.625 -156 199.84375 -154.28125 C 192.34375 -138.019531 184.8125 -121.742188 177.25 -105.453125 C 171.476562 -92.890625 165.65625 -80.296875 159.78125 -67.671875 C 158.09375 -63.941406 156.421875 -60.222656 154.765625 -56.515625 C 154.410156 -55.742188 154.050781 -55 153.6875 -54.28125 C 153.625 -54.113281 153.5625 -53.9375 153.5 -53.75 C 153.269531 -53.226562 153.082031 -52.710938 152.9375 -52.203125 C 152.789062 -51.703125 152.832031 -51.210938 153.0625 -50.734375 C 153.550781 -50.367188 154.117188 -50.171875 154.765625 -50.140625 C 155.410156 -50.109375 156.007812 -50.09375 156.5625 -50.09375 C 157.019531 -50.15625 157.425781 -50.1875 157.78125 -50.1875 C 160.476562 -50.125 163.1875 -50.125 165.90625 -50.1875 C 169.613281 -50.1875 173.332031 -50.15625 177.0625 -50.09375 C 197.3125 -49.738281 217.578125 -49.300781 237.859375 -48.78125 C 244.515625 -48.644531 251.125 -48.367188 257.6875 -47.953125 C 258.269531 -47.890625 258.882812 -47.859375 259.53125 -47.859375 C 259.882812 -47.859375 260.273438 -47.859375 260.703125 -47.859375 C 261.546875 -47.859375 262.363281 -47.785156 263.15625 -47.640625 C 263.945312 -47.492188 264.703125 -47.207031 265.421875 -46.78125 C 265.546875 -46.6875 265.640625 -46.53125 265.703125 -46.3125 C 265.773438 -46.101562 265.78125 -45.9375 265.71875 -45.8125 C 265.71875 -45.582031 265.625 -45.378906 265.4375 -45.203125 C 265.257812 -45.023438 265.109375 -44.90625 264.984375 -44.84375 C 264.398438 -44.613281 263.78125 -44.5 263.125 -44.5 Z M 118.015625 -43.953125 C 118.234375 -44.410156 118.253906 -44.816406 118.078125 -45.171875 C 117.898438 -45.535156 117.601562 -45.71875 117.1875 -45.71875 C 116.53125 -45.78125 115.847656 -45.78125 115.140625 -45.71875 C 114.773438 -45.71875 114.414062 -45.71875 114.0625 -45.71875 C 89.5625 -45.425781 65.039062 -43.738281 40.5 -40.65625 C 31.125 -39.519531 21.796875 -38.023438 12.515625 -36.171875 C 3.234375 -34.316406 -5.96875 -31.992188 -15.09375 -29.203125 C -19.957031 -27.710938 -24.757812 -26 -29.5 -24.0625 C -34.238281 -22.132812 -38.863281 -19.84375 -43.375 -17.1875 C -48.082031 -14.550781 -52.367188 -11.335938 -56.234375 -7.546875 C -60.742188 -2.898438 -63.28125 2.039062 -63.84375 7.28125 C -64.414062 12.519531 -63.015625 17.570312 -59.640625 22.4375 C -57.140625 25.84375 -54.148438 28.765625 -50.671875 31.203125 C -38.015625 40.191406 -22.941406 44.769531 -5.453125 44.9375 C -0.972656 44.9375 4.171875 44.351562 9.984375 43.1875 C 15.753906 41.976562 21.332031 40.210938 26.71875 37.890625 C 32.113281 35.578125 37.34375 32.847656 42.40625 29.703125 C 54.894531 22.003906 66.460938 13.046875 77.109375 2.828125 C 84.484375 -4.085938 91.429688 -11.363281 97.953125 -19 C 104.472656 -26.644531 110.800781 -34.429688 116.9375 -42.359375 C 117.289062 -42.941406 117.648438 -43.472656 118.015625 -43.953125 Z M 147.796875 -54.03125 C 152.503906 -64.75 157.359375 -75.429688 162.359375 -86.078125 C 162.585938 -86.660156 163.34375 -88.335938 164.625 -91.109375 C 165.90625 -93.878906 167.378906 -97.109375 169.046875 -100.796875 C 170.722656 -104.484375 172.257812 -107.960938 173.65625 -111.234375 C 175.050781 -114.515625 176.03125 -116.972656 176.59375 -118.609375 C 177.164062 -120.253906 177 -120.410156 176.09375 -119.078125 C 175.863281 -118.785156 175.679688 -118.492188 175.546875 -118.203125 C 174.773438 -117.066406 174.03125 -115.929688 173.3125 -114.796875 C 167.375 -105.578125 161.398438 -96.375 155.390625 -87.1875 C 149.390625 -78.007812 143.175781 -68.957031 136.75 -60.03125 C 136.132812 -59.1875 135.503906 -58.289062 134.859375 -57.34375 C 133.617188 -55.65625 132.398438 -53.953125 131.203125 -52.234375 C 130.710938 -51.523438 130.570312 -50.929688 130.78125 -50.453125 C 131 -49.984375 131.492188 -49.75 132.265625 -49.75 C 133.566406 -49.75 134.851562 -49.785156 136.125 -49.859375 C 138.132812 -50.015625 140.128906 -50.09375 142.109375 -50.09375 C 143.628906 -50.03125 144.8125 -50.351562 145.65625 -51.0625 C 146.5 -51.78125 147.210938 -52.769531 147.796875 -54.03125 Z M 147.796875 -54.03125 "/></g></g></g><g fill="#141414" fill-opacity="1"><g transform="translate(1369.672826, 182.605923)"><g><path d="M 50.875 -24.390625 C 52.007812 -25.109375 52.898438 -25.285156 53.546875 -24.921875 C 54.203125 -24.566406 53.960938 -23.5625 52.828125 -21.90625 C 51.390625 -19.988281 48.828125 -17.941406 45.140625 -15.765625 C 41.460938 -13.597656 38.210938 -12.648438 35.390625 -12.921875 C 32.566406 -13.203125 31.75 -15.285156 32.9375 -19.171875 C 34.125 -23.066406 34.765625 -25.25 34.859375 -25.71875 C 34.953125 -26.195312 34.859375 -26.46875 34.578125 -26.53125 C 34.304688 -26.59375 33.671875 -26.269531 32.671875 -25.5625 C 29.742188 -23.550781 26.882812 -21.441406 24.09375 -19.234375 C 22.894531 -18.316406 21.710938 -17.359375 20.546875 -16.359375 C 19.828125 -15.710938 19.082031 -15.0625 18.3125 -14.40625 C 18.3125 -14.40625 18.273438 -14.375 18.203125 -14.3125 C 17.359375 -13.46875 16.320312 -12.898438 15.09375 -12.609375 C 14.539062 -12.441406 13.957031 -12.382812 13.34375 -12.4375 C 12.726562 -12.488281 12.207031 -12.722656 11.78125 -13.140625 C 11.289062 -13.628906 11.109375 -14.140625 11.234375 -14.671875 C 11.367188 -15.210938 11.773438 -16.015625 12.453125 -17.078125 C 13.140625 -18.148438 13.894531 -19.328125 14.71875 -20.609375 C 15.550781 -21.898438 16.015625 -22.691406 16.109375 -22.984375 C 16.210938 -23.273438 16.164062 -23.566406 15.96875 -23.859375 C 15.738281 -24.148438 15.484375 -24.238281 15.203125 -24.125 C 14.929688 -24.007812 13.898438 -23.3125 12.109375 -22.03125 C 10.328125 -20.75 7.894531 -18.957031 4.8125 -16.65625 C 3.382812 -15.582031 1.992188 -14.476562 0.640625 -13.34375 C 0.273438 -12.976562 -0.113281 -12.648438 -0.53125 -12.359375 C -1.539062 -11.515625 -2.644531 -11.0625 -3.84375 -11 C -4.71875 -10.9375 -5.363281 -11.128906 -5.78125 -11.578125 C -6.207031 -12.035156 -6.273438 -12.65625 -5.984375 -13.4375 C -5.796875 -14.019531 -5.550781 -14.554688 -5.25 -15.046875 C -5.09375 -15.273438 -4.984375 -15.5 -4.921875 -15.71875 C -2.359375 -20.914062 0.171875 -26.128906 2.671875 -31.359375 C 2.742188 -31.484375 2.8125 -31.660156 2.875 -31.890625 C 3.164062 -32.441406 3.457031 -32.976562 3.75 -33.5 C 4.53125 -34.34375 5.457031 -34.617188 6.53125 -34.328125 C 7.757812 -33.960938 8.226562 -33.242188 7.9375 -32.171875 C 7.351562 -30.554688 6.785156 -28.953125 6.234375 -27.359375 C 5.941406 -26.640625 5.648438 -25.925781 5.359375 -25.21875 C 4.867188 -23.945312 4.710938 -23.132812 4.890625 -22.78125 C 5.066406 -22.425781 5.867188 -22.671875 7.296875 -23.515625 C 8.273438 -24.160156 9.234375 -24.8125 10.171875 -25.46875 C 11.304688 -26.238281 12.410156 -26.953125 13.484375 -27.609375 C 15.140625 -28.609375 16.828125 -29.46875 18.546875 -30.1875 C 19.390625 -30.539062 20.253906 -30.804688 21.140625 -30.984375 C 22.035156 -31.160156 22.875 -30.957031 23.65625 -30.375 C 24.238281 -29.882812 24.488281 -29.332031 24.40625 -28.71875 C 24.332031 -28.101562 24.164062 -27.519531 23.90625 -26.96875 C 23.445312 -25.894531 23.257812 -25.210938 23.34375 -24.921875 C 23.425781 -24.628906 23.675781 -24.570312 24.09375 -24.75 C 24.519531 -24.925781 25.265625 -25.335938 26.328125 -25.984375 C 27.398438 -26.640625 28.554688 -27.359375 29.796875 -28.140625 C 31.347656 -29.140625 32.988281 -30.097656 34.71875 -31.015625 C 36.144531 -31.953125 37.664062 -32.519531 39.28125 -32.71875 C 41.519531 -32.875 42.4375 -31.96875 42.03125 -30 C 41.625 -28.039062 40.835938 -25.707031 39.671875 -23 C 38.503906 -20.289062 38.382812 -18.628906 39.3125 -18.015625 C 40.238281 -17.398438 42.289062 -18.234375 45.46875 -20.515625 C 48.644531 -22.804688 50.445312 -24.097656 50.875 -24.390625 Z M 50.875 -24.390625 "/></g></g></g><g fill="#141414" fill-opacity="1"><g transform="translate(1460.854652, 182.605923)"><g><path d="M 35.3125 -24.796875 C 36.082031 -24.359375 36.140625 -23.296875 35.484375 -21.609375 C 34.546875 -20.378906 33.539062 -19.226562 32.46875 -18.15625 C 31.394531 -17.082031 30.226562 -16.125 28.96875 -15.28125 C 28.875 -15.28125 28.828125 -15.25 28.828125 -15.1875 C 27.972656 -14.601562 27.078125 -14.101562 26.140625 -13.6875 C 18.378906 -10.894531 14.421875 -12.53125 14.265625 -18.59375 C 11.117188 -15.863281 9.007812 -14.191406 7.9375 -13.578125 C 5.375 -12.054688 2.597656 -11.375 -0.390625 -11.53125 C -2.597656 -11.664062 -4.097656 -12.34375 -4.890625 -13.5625 C -5.679688 -14.78125 -5.609375 -16.425781 -4.671875 -18.5 C -3.242188 -21.78125 -1.21875 -24.703125 1.40625 -27.265625 C 4.488281 -30.117188 7.914062 -32.40625 11.6875 -34.125 C 13.695312 -35.132812 15.804688 -35.523438 18.015625 -35.296875 C 20.222656 -35.160156 21.550781 -33.910156 22 -31.546875 C 22.195312 -30.828125 22.019531 -30.191406 21.46875 -29.640625 C 20.75 -28.992188 19.921875 -28.847656 18.984375 -29.203125 C 18.921875 -29.203125 18.832031 -29.21875 18.71875 -29.25 C 18.601562 -29.289062 18.515625 -29.34375 18.453125 -29.40625 C 17.515625 -30.707031 16.566406 -31.25 15.609375 -31.03125 C 14.648438 -30.820312 13.632812 -30.394531 12.5625 -29.75 C 7.5625 -26.820312 3.84375 -22.75 1.40625 -17.53125 C 1.28125 -17.300781 1.203125 -17.046875 1.171875 -16.765625 C 1.140625 -16.492188 1.21875 -16.273438 1.40625 -16.109375 C 1.988281 -15.921875 2.640625 -15.960938 3.359375 -16.234375 C 4.078125 -16.515625 4.789062 -16.921875 5.5 -17.453125 C 6.21875 -17.984375 6.816406 -18.429688 7.296875 -18.796875 C 7.367188 -18.890625 7.40625 -18.9375 7.40625 -18.9375 C 9.769531 -20.914062 12.085938 -22.941406 14.359375 -25.015625 C 15.367188 -26.085938 16.617188 -26.691406 18.109375 -26.828125 C 20.253906 -26.828125 21.144531 -25.867188 20.78125 -23.953125 C 20.59375 -23.234375 20.382812 -22.519531 20.15625 -21.8125 C 19.3125 -18.726562 19.273438 -16.914062 20.046875 -16.375 C 20.828125 -15.84375 22.019531 -15.84375 23.625 -16.375 C 25.238281 -16.914062 26.847656 -17.941406 28.453125 -19.453125 C 30.054688 -20.960938 31.410156 -22.34375 32.515625 -23.59375 C 33.617188 -24.84375 34.550781 -25.242188 35.3125 -24.796875 Z M 35.3125 -24.796875 "/></g></g></g><g fill="#141414" fill-opacity="1"><g transform="translate(1532.808893, 182.605923)"><g><path d="M 38.5625 -24.296875 C 39.082031 -23.640625 38.429688 -22.453125 36.609375 -20.734375 C 34.796875 -19.015625 32.863281 -17.570312 30.8125 -16.40625 C 28.769531 -15.238281 26.398438 -14.070312 23.703125 -12.90625 C 21.921875 -12.125 20.023438 -11.863281 18.015625 -12.125 C 16.003906 -12.382812 15 -13.597656 15 -15.765625 C 15 -17.941406 15.5 -20.101562 16.5 -22.25 C 17.507812 -24.457031 17.726562 -25.59375 17.15625 -25.65625 C 16.59375 -25.71875 15.414062 -25.179688 13.625 -24.046875 C 8.988281 -20.992188 4.675781 -17.503906 0.6875 -13.578125 C -0.382812 -12.285156 -1.75 -11.570312 -3.40625 -11.4375 C -4.25 -11.4375 -4.90625 -11.703125 -5.375 -12.234375 C -5.84375 -12.773438 -5.898438 -13.351562 -5.546875 -13.96875 C -2.691406 -19.257812 0.191406 -24.484375 3.109375 -29.640625 C 3.765625 -30.710938 4.738281 -31.378906 6.03125 -31.640625 C 6.582031 -31.742188 7.09375 -31.570312 7.5625 -31.125 C 8.039062 -30.6875 8.28125 -30.191406 8.28125 -29.640625 C 8.207031 -29.128906 7.992188 -28.515625 7.640625 -27.796875 C 7.484375 -27.378906 7.332031 -26.972656 7.1875 -26.578125 C 7.039062 -26.191406 6.988281 -25.867188 7.03125 -25.609375 C 7.082031 -25.347656 7.285156 -25.265625 7.640625 -25.359375 C 8.128906 -25.617188 8.617188 -25.894531 9.109375 -26.1875 C 10.335938 -26.90625 11.519531 -27.585938 12.65625 -28.234375 C 13.664062 -28.816406 14.722656 -29.332031 15.828125 -29.78125 C 16.929688 -30.238281 18.082031 -30.550781 19.28125 -30.71875 C 21.226562 -30.84375 22.609375 -30.398438 23.421875 -29.390625 C 24.234375 -28.390625 24.328125 -27 23.703125 -25.21875 C 23.054688 -23.59375 22.375 -21.984375 21.65625 -20.390625 C 20.78125 -18.898438 20.632812 -17.765625 21.21875 -16.984375 C 21.8125 -16.210938 24.523438 -17.109375 29.359375 -19.671875 L 33 -21.8125 C 36.445312 -24.019531 38.300781 -24.847656 38.5625 -24.296875 Z M 38.5625 -24.296875 "/></g></g></g><g fill="#141414" fill-opacity="1"><g transform="translate(1608.170545, 182.605923)"><g><path d="M 7.734375 -11.53125 L 7.59375 -11.53125 C 2.882812 -11.601562 -0.210938 -12.648438 -1.703125 -14.671875 C -3.191406 -16.703125 -3.128906 -19.40625 -1.515625 -22.78125 C -0.148438 -25.34375 1.570312 -27.582031 3.65625 -29.5 C 4.363281 -30.144531 5.09375 -30.660156 5.84375 -31.046875 C 6.59375 -31.441406 7.4375 -31.640625 8.375 -31.640625 C 8.925781 -31.742188 9.554688 -31.648438 10.265625 -31.359375 C 10.492188 -31.285156 10.722656 -31.203125 10.953125 -31.109375 C 11.503906 -31.203125 12.039062 -31.378906 12.5625 -31.640625 C 12.6875 -31.742188 12.863281 -31.828125 13.09375 -31.890625 C 14.164062 -32.304688 15.300781 -32.484375 16.5 -32.421875 C 16.988281 -32.421875 17.492188 -32.421875 18.015625 -32.421875 C 19.929688 -32.128906 21.375 -31.328125 22.34375 -30.015625 C 23.320312 -28.703125 23.664062 -27.101562 23.375 -25.21875 C 23.207031 -24.082031 22.847656 -23.007812 22.296875 -22 C 18.566406 -15.3125 13.8125 -11.820312 8.03125 -11.53125 Z M 15.4375 -28.96875 C 12.875 -29.0625 10.59375 -28.320312 8.59375 -26.75 C 6.59375 -25.175781 5.101562 -23.363281 4.125 -21.3125 C 3.15625 -19.269531 2.890625 -17.59375 3.328125 -16.28125 C 3.765625 -14.96875 5.125 -14.601562 7.40625 -15.1875 C 9.96875 -15.96875 12.226562 -17.425781 14.1875 -19.5625 C 16.15625 -21.707031 17.359375 -23.742188 17.796875 -25.671875 C 18.234375 -27.609375 17.445312 -28.707031 15.4375 -28.96875 Z M 15.4375 -28.96875 "/></g></g></g><g fill="#141414" fill-opacity="1"><g transform="translate(1673.699364, 182.605923)"><g><path d="M 31.0625 -40.984375 C 30.769531 -40.273438 30.410156 -39.597656 29.984375 -38.953125 C 24.691406 -30.378906 18.6875 -22.410156 11.96875 -15.046875 C 11.0625 -13.972656 10.070312 -13.015625 9 -12.171875 C 8 -11.453125 6.929688 -10.945312 5.796875 -10.65625 C 2.578125 -10.101562 0.707031 -11.382812 0.1875 -14.5 C 0.0625 -16.445312 0.0625 -18.378906 0.1875 -20.296875 C 0.1875 -21.171875 0.1875 -22.03125 0.1875 -22.875 C 0.1875 -22.875 0.238281 -22.875 0.34375 -22.875 C 0.34375 -23.457031 0.34375 -24.023438 0.34375 -24.578125 C 0.34375 -26.015625 0.34375 -27.445312 0.34375 -28.875 C 0.34375 -29.644531 0.375 -30.4375 0.4375 -31.25 C 0.789062 -33.039062 1.679688 -33.96875 3.109375 -34.03125 C 4.671875 -33.96875 5.535156 -32.863281 5.703125 -30.71875 C 5.703125 -30.132812 5.648438 -29.597656 5.546875 -29.109375 C 5.484375 -28.585938 5.453125 -28.117188 5.453125 -27.703125 C 5.316406 -24.554688 5.21875 -21.375 5.15625 -18.15625 C 5.15625 -17.445312 5.460938 -17.023438 6.078125 -16.890625 C 6.304688 -16.890625 6.507812 -16.9375 6.6875 -17.03125 C 6.875 -17.132812 7.03125 -17.265625 7.15625 -17.421875 C 9.039062 -19.628906 10.875 -21.835938 12.65625 -24.046875 C 13.375 -24.921875 14.085938 -25.78125 14.796875 -26.625 C 15.578125 -27.632812 16.359375 -28.59375 17.140625 -29.5 C 20.222656 -33.363281 23.320312 -37.191406 26.4375 -40.984375 C 26.789062 -41.472656 27.203125 -41.894531 27.671875 -42.25 C 28.140625 -42.613281 28.734375 -42.796875 29.453125 -42.796875 C 30.035156 -42.722656 30.539062 -42.507812 30.96875 -42.15625 C 31.09375 -42.03125 31.15625 -41.851562 31.15625 -41.625 C 31.15625 -41.394531 31.125 -41.179688 31.0625 -40.984375 Z M 31.0625 -40.984375 "/></g></g></g></svg>